<?xml version="1.0" encoding="UTF-8" standalone="no"?>
<svg
   xmlns:dc="http://purl.org/dc/elements/1.1/"
   xmlns:cc="http://creativecommons.org/ns#"
   xmlns:rdf="http://www.w3.org/1999/02/22-rdf-syntax-ns#"
   xmlns:svg="http://www.w3.org/2000/svg"
   xmlns="http://www.w3.org/2000/svg"
   viewBox="0 0 4000 2666.6667"
   height="2666.6667"
   width="4000"
   xml:space="preserve"
   id="svg2"
   version="1.1"><metadata
     id="metadata8"><rdf:RDF><cc:Work
         rdf:about=""><dc:format>image/svg+xml</dc:format><dc:type
           rdf:resource="http://purl.org/dc/dcmitype/StillImage" /></cc:Work></rdf:RDF></metadata><defs
     id="defs6" /><g
     transform="matrix(1.3333333,0,0,-1.3333333,0,2666.6667)"
     id="g10"><g
       transform="scale(0.1)"
       id="g12"><g
         transform="scale(1.84049)"
         id="g14"><path
           id="path16"
           style="fill:#ffffff;fill-opacity:1;fill-rule:nonzero;stroke:none"
           d="M 16300,0 H 0 V 10866.7 H 16300 V 0" /></g><g
         transform="scale(1.73948)"
         id="g18"><path
           id="path20"
           style="fill:#ebf3fa;fill-opacity:1;fill-rule:nonzero;stroke:none"
           d="m 16071,2047.67 c -164.2,-663.24 -510.9,-1050.304 -517.1,-1064.793 -180,0 -859.8,-0.115 -1827.3,-0.115 -540.5,0 -1170.7,0.059 -1853.7,0.115 -4069.21,0.691 -10013.34,4.197 -10018.38,19.773 l -1.24,2.88 c 0,0 -1.25,2.87 -1.25,4.25 -4.9,11.5 -1974.08,3232.57 1087.24,5474.97 1197.86,877.33 -74.93,1456.52 877.56,2433.29 722.05,740.33 1487.52,452.2 2274.34,316.21 406.1,-70.19 817.83,-99.8 1232.26,73.48 215.01,89.85 430.82,234.46 646.86,456.36 121.65,124.8 254.96,233.95 397.59,328.21 444.73,294.5 973.1,437.5 1500.73,477.2 1360.09,101.6 2890.69,-470.2 3680.59,-1305.86 159.1,-168.3 882.2,-1038.99 312.1,-2235.82 -83.4,-175.25 -66.4,-348.67 15.5,-522.38 113.4,-240.25 351,-481.22 619.4,-728.56 372.9,-344.01 808.6,-702.45 1048.8,-1089.29 500.7,-806.32 755,-1714.81 526,-2639.92" /></g><g
         transform="scale(1.4501)"
         id="g22"><path
           id="path24"
           style="fill:#ffffff;fill-opacity:1;fill-rule:nonzero;stroke:none"
           d="m 13648.9,8605.13 c 0,0 132.6,281.91 449.5,250.59 0,0 460.3,469.85 951,62.64 0,0 521.6,100.9 907.9,-87.36 257.6,-125.52 342.7,-257.19 342.7,-257.19 l -2651.1,31.32" /></g><g
         transform="scale(1.65012)"
         id="g26"><path
           id="path28"
           style="fill:#ffffff;fill-opacity:1;fill-rule:nonzero;stroke:none"
           d="m 14364.5,4432.03 c 0,0 96.8,205.81 328.2,182.96 0,0 336,343.01 694.2,45.75 0,0 380.9,73.64 662.9,-63.81 188.1,-91.63 250.2,-187.74 250.2,-187.74 l -1935.5,22.84" /></g><g
         transform="scale(1.14683)"
         id="g30"><path
           id="path32"
           style="fill:#739af0;fill-opacity:1;fill-rule:nonzero;stroke:none"
           d="m 16300,1490.8 c -2754,0.43 -4365.5,1.75 -7198.95,5.23 -1456.22,1.74 -2783.83,4.01 -3839.98,7.06 -1494.73,4.28 -2445.76,10.03 -2448.19,17.71 l -1.88,4.36 c 0,0 -1.9,4.36 -1.9,6.45 -2.32,5.32 -283.99,467.29 -540.49,1203.57 -184.64,530.07 -356.08,1202.18 -400.65,1948.23 v 0.18 c -95.59,1601.02 393.12,3542.88 2590.24,5152.29 1816.88,1330.72 -113.66,2209.22 1331.05,3690.72 1095.19,1122.9 2803.17,549.9 3550.28,103.2 C 10441.8,12970.4 11797.4,12214.9 12427.3,7627.08 13155.1,2326.06 16300,1490.8 16300,1490.8" /></g><path
         id="path34"
         style="fill:#4f70bd;fill-opacity:1;fill-rule:nonzero;stroke:none"
         d="M 13317.2,1723.8 H 6033.58 v 0 c -1714.21,4.9 -2804.88,11.5 -2807.67,20.3 l -2.16,5 c 0,0 -2.17,5 -2.17,7.4 -2.67,6.1 -325.7,535.9 -619.86,1380.3 -211.75,607.9 -408.36,1378.7 -459.48,2234.3 628.88,-8.1 2107.31,-189 3224.3,-1587.5 516.75,-647 1530.66,-765.4 2672.33,-765.4 329.56,0 669.64,9.9 1011.63,19.8 341.91,9.8 685.69,19.7 1022.3,19.7 1448.7,0 2765.9,-182.6 3244.4,-1333.9" /><g
         transform="scale(1.26579)"
         id="g36"><path
           id="path38"
           style="fill:#2b478b;fill-opacity:1;fill-rule:nonzero;stroke:none"
           d="m 16300,7199.76 c 0,-1052.07 -412.5,-2007.83 -1084.6,-2714.27 -717.5,-754.15 -1730.8,-1224.21 -2853.9,-1224.21 -2175.1,0 -3938.47,1763.32 -3938.47,3938.48 0,1040.34 403.46,1986.64 1062.26,2690.64 718.71,767.9 1741.41,1247.9 2876.21,1247.9 2175.2,0 3938.5,-1763.35 3938.5,-3938.54" /></g><g
         transform="scale(1.26579)"
         id="g40"><path
           id="path42"
           style="fill:#8c9df4;fill-opacity:1;fill-rule:nonzero;stroke:none"
           d="m 16300,7199.76 c 0,-1052.07 -412.5,-2007.83 -1084.6,-2714.27 L 9485.29,9890.4 c 718.71,767.9 1741.41,1247.9 2876.21,1247.9 2175.2,0 3938.5,-1763.35 3938.5,-3938.54" /></g><path
         id="path44"
         style="fill:#ebf3fa;fill-opacity:1;fill-rule:nonzero;stroke:none"
         d="m 15121.8,13239.6 -171.6,-47.7 -35.4,136.2 256,81.7 h 117.1 v -960 h -166.1 v 789.8" /><path
         id="path46"
         style="fill:#ebf3fa;fill-opacity:1;fill-rule:nonzero;stroke:none"
         d="m 15485.4,12581.8 328.1,279.2 c 130.8,110.3 178.4,171.6 178.4,257.4 0,93.9 -66.7,148.4 -153.9,148.4 -87.1,0 -147,-47.7 -220.5,-143 l -118.5,92.6 c 91.2,128 181.1,200.2 351.3,200.2 186.6,0 314.6,-114.4 314.6,-287.3 0,-149.8 -80.4,-230.2 -247.9,-369.1 l -196.1,-163.4 h 453.5 v -147 h -689 v 132" /><path
         id="path48"
         style="fill:#ebf3fa;fill-opacity:1;fill-rule:nonzero;stroke:none"
         d="m 15744.8,5314.8 c 0,95.3 -76.3,166.1 -194.7,166.1 -118.5,0 -193.4,-76.3 -193.4,-170.2 0,-96.7 77.6,-171.6 197.5,-171.6 118.4,0 190.6,74.9 190.6,175.7 z m -450.7,-220.6 c -73.6,73.5 -117.1,172.9 -117.1,367.6 0,291.5 138.9,518.9 408.5,518.9 123.9,0 208.3,-39.5 291.4,-106.3 l -89.9,-129.3 c -66.7,51.7 -123.9,83 -207,83 -141.6,0 -220.6,-128 -228.7,-302.3 50.3,49.1 115.7,95.4 227.4,95.4 185.1,0 333.6,-109 333.6,-302.3 0,-189.3 -153.9,-324.1 -354.1,-324.1 -117.1,0 -201.5,36.7 -264.1,99.4" /><g
         transform="scale(1.20161)"
         id="g50"><path
           id="path52"
           style="fill:#ebf3fa;fill-opacity:1;fill-rule:nonzero;stroke:none"
           d="m 15718.6,7342.17 97.5,90.62 c 56.6,-66.82 120.1,-104.27 208.5,-104.27 78.2,0 137.1,47.6 137.1,122.42 0,78.23 -71.4,122.42 -182.4,122.42 h -64.6 l -22.7,87.21 214.2,227.78 h -343.4 v 121.25 h 524.7 v -104.27 l -220.9,-226.61 c 125.7,-18.15 233.4,-82.73 233.4,-225.54 0,-146.13 -113.3,-250.41 -277.6,-250.41 -138.3,0 -237,57.76 -303.8,139.4" /></g><path
         id="path54"
         style="fill:#ebf3fa;fill-opacity:1;fill-rule:nonzero;stroke:none"
         d="m 12222.2,9312.6 c 0,99.4 -77.6,175.6 -198.8,175.6 -118.5,0 -189.3,-78.9 -189.3,-179.7 0,-99.4 76.3,-170.2 194.8,-170.2 121.1,0 193.3,79 193.3,174.3 z m -533.8,-551.5 91.3,128 c 72.1,-61.3 136.1,-89.9 217.8,-89.9 140.3,0 224.7,123.9 230.2,299.6 -47.7,-57.2 -121.2,-100.8 -223.4,-100.8 -202.8,0 -337.7,118.5 -337.7,305.1 0,186.5 144.4,329.5 355.4,329.5 119.9,0 197.5,-34 264.2,-100.8 70.8,-70.8 115.8,-175.6 115.8,-366.3 0,-306.4 -152.5,-518.8 -408.5,-518.8 -132.1,0 -224.7,47.7 -305.1,114.4" /><g
         transform="scale(1.34323)"
         id="g56"><path
           id="path58"
           style="fill:#2b478b;fill-opacity:1;fill-rule:nonzero;stroke:none"
           d="m 11614.8,11402.3 c -9.8,0 -17.7,7.9 -17.9,17.6 0,9.9 7.9,17.9 17.8,18 13.7,0.1 27.5,0.2 41.3,0.2 13.1,0 26.2,-0.1 39.2,-0.2 9.8,-0.1 17.8,-8.1 17.7,-17.9 -0.1,-9.9 -8,-17.4 -18,-17.7 -13.5,0.1 -26.9,0.1 -40.4,0.2 -13.2,0 -26.4,-0.1 -39.5,-0.2 h -0.2 m 240.9,-4.1 h -0.9 c -26.5,1.2 -53.4,2.1 -79.9,2.8 -9.9,0.2 -17.6,8.4 -17.4,18.2 0.3,9.8 8.4,17.5 18.3,17.4 26.7,-0.7 53.8,-1.6 80.6,-2.8 9.8,-0.4 17.4,-8.7 17,-18.5 -0.4,-9.6 -8.3,-17.1 -17.7,-17.1 m -401.2,-0.1 c -9.4,0 -17.3,7.5 -17.8,17.1 -0.3,9.8 7.3,18.1 17.1,18.6 26.6,1.1 53.6,2 80.3,2.7 10,0.3 18,-7.5 18.3,-17.3 0.3,-9.9 -7.5,-18 -17.3,-18.3 -26.6,-0.7 -53.4,-1.6 -79.8,-2.7 l -0.8,-0.1 m 561.4,-9.4 h -1.4 c -26.3,2 -53.1,3.9 -79.8,5.5 -9.8,0.6 -17.3,9 -16.7,18.8 0.6,9.8 9,17.3 18.9,16.7 26.8,-1.6 53.8,-3.4 80.4,-5.5 9.8,-0.7 17.1,-9.3 16.4,-19.1 -0.8,-9.3 -8.5,-16.4 -17.8,-16.4 m -721.7,-0.2 c -9.2,0 -17,7.1 -17.7,16.5 -0.7,9.8 6.6,18.3 16.4,19.1 26.7,2.1 53.8,3.9 80.4,5.5 10,0.7 18.2,-6.9 18.8,-16.7 0.6,-9.8 -6.9,-18.2 -16.6,-18.8 -26.5,-1.6 -53.4,-3.5 -79.8,-5.5 l -1.5,-0.1 m 881.6,-14.9 c -0.7,0 -1.4,0 -2,0.1 -26.2,2.9 -53,5.7 -79.5,8.2 -9.9,0.9 -17,9.6 -16.1,19.4 0.9,9.8 9.6,16.9 19.4,16 26.7,-2.5 53.7,-5.3 80.2,-8.2 9.7,-1.1 16.7,-9.9 15.7,-19.7 -1.1,-9.1 -8.8,-15.8 -17.7,-15.8 m -1041.4,-0.2 c -9,0 -16.7,6.7 -17.7,15.8 -1.1,9.8 5.9,18.6 15.7,19.7 26.6,3 53.5,5.8 80.2,8.3 9.7,0.9 18.4,-6.3 19.4,-16.1 0.9,-9.8 -6.2,-18.4 -16.1,-19.4 -26.4,-2.5 -53.2,-5.3 -79.5,-8.2 -0.7,-0.1 -1.3,-0.1 -2,-0.1 M 12335,11353 c -0.8,0 -1.7,0 -2.6,0.2 -26.2,3.8 -52.8,7.5 -79.2,10.9 -9.8,1.3 -16.7,10.2 -15.4,20 1.3,9.7 10.2,16.6 19.9,15.3 26.6,-3.4 53.5,-7.1 79.9,-11 9.8,-1.4 16.5,-10.5 15.1,-20.2 -1.4,-8.9 -9,-15.2 -17.7,-15.2 m -1359.8,-0.3 c -8.7,0 -16.3,6.4 -17.7,15.2 -1.4,9.8 5.3,18.8 15.1,20.2 26.3,3.9 53.2,7.7 79.8,11.1 9.8,1.2 18.7,-5.6 20,-15.4 1.3,-9.7 -5.7,-18.6 -15.4,-19.9 -26.4,-3.4 -53.1,-7.1 -79.2,-11 -0.9,-0.1 -1.8,-0.2 -2.6,-0.2 m 1518.2,-25.9 c -1,0 -2,0.1 -3.2,0.3 -26.1,4.8 -52.6,9.4 -78.7,13.7 -9.8,1.6 -16.3,10.8 -14.7,20.5 1.6,9.7 10.7,16.3 20.5,14.7 26.3,-4.4 53.1,-9 79.3,-13.8 9.7,-1.8 16.1,-11.1 14.4,-20.7 -1.6,-8.6 -9.1,-14.7 -17.6,-14.7 m -1676.7,-0.3 c -8.4,0 -15.9,6 -17.5,14.6 -1.7,9.7 4.7,19 14.3,20.7 26.3,4.9 53,9.5 79.4,13.9 9.7,1.6 18.9,-5 20.5,-14.7 1.6,-9.7 -4.9,-18.9 -14.7,-20.5 -26.2,-4.3 -52.7,-8.9 -78.8,-13.7 -1.1,-0.2 -2.1,-0.3 -3.2,-0.3 m 1834.2,-31.3 c -1.3,0 -2.5,0.1 -3.8,0.4 -26,5.7 -52.3,11.2 -78.3,16.5 -9.6,1.9 -15.9,11.3 -13.9,20.9 1.9,9.7 11.2,15.9 20.9,14 26.2,-5.3 52.8,-10.8 78.9,-16.6 9.6,-2.1 15.7,-11.6 13.6,-21.2 -1.8,-8.3 -9.2,-14 -17.4,-14 m -1991.6,-0.4 c -8.2,0 -15.6,5.7 -17.4,14 -2,9.6 4,19.1 13.6,21.2 26.3,5.8 52.8,11.4 78.9,16.6 9.6,2 19,-4.3 20.9,-13.9 2,-9.7 -4.2,-19 -13.9,-21 -25.9,-5.2 -52.2,-10.7 -78.2,-16.5 -1.3,-0.2 -2.7,-0.4 -3.9,-0.4 m 2147.9,-36.7 c -1.5,0 -3,0.2 -4.5,0.6 -25.7,6.5 -51.8,13 -77.7,19.1 -9.5,2.3 -15.4,11.9 -13.1,21.5 2.2,9.5 11.8,15.5 21.4,13.2 26.1,-6.2 52.3,-12.7 78.3,-19.3 9.5,-2.5 15.2,-12.2 12.8,-21.7 -2.1,-8.1 -9.3,-13.4 -17.2,-13.4 m -2304.1,-0.4 c -8,0 -15.2,5.3 -17.3,13.3 -2.4,9.6 3.4,19.3 12.9,21.7 26,6.7 52.3,13.2 78.2,19.4 9.6,2.2 19.2,-3.7 21.5,-13.2 2.2,-9.6 -3.7,-19.2 -13.3,-21.5 -25.7,-6.1 -51.8,-12.6 -77.5,-19.2 -1.5,-0.4 -3,-0.5 -4.5,-0.5 m 2458.8,-42.2 c -1.6,0 -3.3,0.3 -5,0.8 -25.6,7.5 -51.4,14.8 -76.9,21.8 -9.5,2.6 -15.1,12.4 -12.5,21.9 2.6,9.5 12.5,15.1 21.9,12.5 25.7,-7.1 51.8,-14.5 77.6,-22 9.5,-2.8 14.8,-12.7 12.1,-22.2 -2.3,-7.7 -9.4,-12.8 -17.2,-12.8 m -2613.7,-0.5 c -7.6,0 -14.7,5.1 -17,12.8 -2.8,9.5 2.6,19.4 12.1,22.1 25.6,7.6 51.7,15 77.5,22.1 9.5,2.6 19.2,-3 21.8,-12.4 2.6,-9.5 -2.9,-19.3 -12.4,-21.9 -25.5,-7.1 -51.4,-14.4 -76.9,-21.9 -1.7,-0.5 -3.3,-0.8 -5.1,-0.8 m 2767.3,-47.5 c -1.8,0 -3.7,0.3 -5.6,0.9 -25.3,8.4 -51,16.7 -76.4,24.7 -9.4,2.9 -14.6,12.9 -11.7,22.3 3,9.4 12.9,14.6 22.3,11.7 25.6,-8.1 51.5,-16.4 77,-24.9 9.4,-3.1 14.4,-13.2 11.3,-22.5 -2.4,-7.5 -9.4,-12.2 -16.9,-12.2 M 10195,11167 c -7.4,0 -14.3,4.8 -16.9,12.2 -3.1,9.4 2,19.5 11.3,22.6 25.4,8.4 51.3,16.7 76.7,24.7 9.4,3 19.4,-2.3 22.4,-11.7 2.9,-9.3 -2.3,-19.3 -11.7,-22.3 -25.3,-7.9 -51,-16.2 -76.1,-24.6 -1.9,-0.6 -3.8,-0.9 -5.7,-0.9 m 3072.5,-53 c -2,0 -4.1,0.4 -6.1,1.1 -24.9,9.3 -50.3,18.5 -75.5,27.3 -9.3,3.3 -14.2,13.5 -10.9,22.8 3.3,9.2 13.4,14.1 22.7,10.8 25.4,-8.9 51,-18.2 76,-27.5 9.3,-3.4 13.9,-13.7 10.6,-22.9 -2.7,-7.1 -9.5,-11.6 -16.8,-11.6 m -3223.9,-0.3 c -7.2,0 -14.1,4.4 -16.7,11.6 -3.5,9.2 1.2,19.5 10.4,22.9 25.2,9.4 50.7,18.6 75.8,27.4 9.3,3.3 19.5,-1.6 22.7,-10.8 3.3,-9.3 -1.5,-19.5 -10.8,-22.7 -25,-8.8 -50.3,-18 -75.2,-27.3 -2.1,-0.7 -4.2,-1.1 -6.2,-1.1 m 3374,-58.5 c -2.3,0 -4.6,0.5 -6.8,1.4 -24.7,10.2 -49.8,20.2 -74.5,29.9 -9.1,3.6 -13.7,13.9 -10.1,23.1 3.7,9.1 14,13.7 23.1,10.1 24.9,-9.8 50.2,-19.9 75,-30.2 9.1,-3.7 13.5,-14.1 9.7,-23.2 -2.8,-6.9 -9.4,-11.1 -16.4,-11.1 m -3523.56,-0.1 c -7,0 -13.63,4.2 -16.45,11 -3.73,9.1 0.59,19.5 9.67,23.3 24.79,10.2 49.96,20.3 74.82,30.1 9.16,3.6 19.43,-1 23.08,-10.1 3.57,-9.2 -0.96,-19.5 -10.12,-23.1 -24.65,-9.7 -49.59,-19.7 -74.23,-29.8 -2.16,-1 -4.46,-1.4 -6.77,-1.4 m -146.81,-63.5 c -6.78,0 -13.25,3.9 -16.23,10.4 -4.02,9 -0.08,19.6 8.86,23.6 24.27,11 48.98,21.9 73.48,32.5 9.01,3.9 19.5,-0.2 23.37,-9.2 3.95,-9.1 -0.22,-19.5 -9.23,-23.4 -24.34,-10.6 -48.83,-21.4 -72.88,-32.3 -2.38,-1.1 -4.91,-1.6 -7.37,-1.6 m 3818.07,-0.3 c -2.4,0 -4.9,0.5 -7.3,1.6 -24.1,10.9 -48.8,21.9 -73.3,32.5 -9.1,3.9 -13.2,14.4 -9.3,23.4 3.9,9 14.4,13.2 23.4,9.3 24.8,-10.7 49.6,-21.8 73.9,-32.8 9,-4 13,-14.6 8.9,-23.6 -3,-6.5 -9.5,-10.4 -16.3,-10.4 M 9602.65,10923 c -6.55,0 -12.8,3.6 -15.93,9.8 -4.39,8.9 -0.82,19.6 8.04,23.9 23.9,11.9 48.17,23.7 72.29,35.1 8.86,4.2 19.5,0.4 23.67,-8.5 4.25,-8.8 0.45,-19.5 -8.41,-23.7 -23.9,-11.3 -48.02,-23 -71.77,-34.8 -2.53,-1.3 -5.21,-1.8 -7.89,-1.8 m 4108.15,-0.8 c -2.7,0 -5.4,0.6 -8,1.9 -23.7,11.8 -48,23.6 -72,35 -9,4.2 -12.8,14.9 -8.5,23.7 4.2,8.9 14.9,12.7 23.7,8.5 24.3,-11.6 48.8,-23.4 72.7,-35.3 8.9,-4.4 12.4,-15.1 8,-23.9 -3.1,-6.3 -9.3,-9.9 -15.9,-9.9 m -4250.27,-72.9 c -6.4,0 -12.51,3.4 -15.71,9.4 -4.69,8.6 -1.48,19.4 7.23,24.1 23.52,12.7 47.42,25.3 71.02,37.6 8.71,4.5 19.5,1.1 24.04,-7.6 4.47,-8.8 1.05,-19.5 -7.66,-24.1 -23.46,-12.1 -47.13,-24.6 -70.51,-37.2 -2.67,-1.5 -5.58,-2.2 -8.41,-2.2 m 4393.17,-1.2 c -2.9,0 -5.8,0.7 -8.5,2.2 -23.4,12.6 -47.2,25.2 -70.8,37.5 -8.8,4.5 -12.2,15.3 -7.7,24 4.6,8.7 15.3,12.1 24.1,7.6 23.8,-12.3 47.8,-25.1 71.4,-37.8 8.6,-4.7 11.8,-15.5 7.1,-24.1 -3.2,-6 -9.3,-9.4 -15.6,-9.4 m -4532.76,-77.3 c -6.1,0 -12.06,3.1 -15.41,8.8 -4.98,8.5 -2.08,19.4 6.41,24.3 22.93,13.5 46.38,27 69.68,40.1 8.56,4.8 19.43,1.8 24.27,-6.8 4.84,-8.6 1.78,-19.4 -6.78,-24.3 -23.15,-13 -46.38,-26.3 -69.23,-39.7 -2.83,-1.7 -5.88,-2.4 -8.94,-2.4 m 4672.86,-1.6 c -3.1,0 -6.1,0.7 -9,2.4 -22.9,13.4 -46.3,26.9 -69.5,39.9 -8.6,4.9 -11.5,15.7 -6.7,24.3 4.8,8.6 15.6,11.6 24.2,6.8 23.4,-13.2 46.9,-26.7 70.1,-40.3 8.4,-5 11.3,-15.9 6.3,-24.4 -3.4,-5.6 -9.3,-8.7 -15.4,-8.7 m -4809.69,-81.8 c -5.88,0 -11.69,2.9 -15.11,8.3 -5.21,8.3 -2.76,19.3 5.58,24.5 22.56,14.3 45.49,28.6 68.27,42.5 8.41,5.1 19.36,2.4 24.49,-6 5.14,-8.4 2.46,-19.3 -5.95,-24.4 -22.56,-13.8 -45.42,-28 -67.75,-42.1 -2.98,-1.9 -6.25,-2.8 -9.53,-2.8 m 4946.99,-2 c -3.3,0 -6.6,0.8 -9.6,2.7 -22.3,14.2 -45.2,28.5 -67.9,42.4 -8.5,5.1 -11.1,16 -6,24.4 5.1,8.4 16.1,11.1 24.5,6 22.9,-14.1 46,-28.4 68.6,-42.7 8.2,-5.3 10.7,-16.3 5.5,-24.6 -3.5,-5.3 -9.3,-8.2 -15.1,-8.2 m -5080.92,-86.1 c -5.66,0 -11.24,2.7 -14.74,7.8 -5.51,8.1 -3.43,19.2 4.69,24.7 22.11,15.1 44.59,30.2 66.85,44.8 8.19,5.4 19.21,3.1 24.64,-5.1 5.44,-8.2 3.13,-19.2 -5.06,-24.6 -22.11,-14.6 -44.44,-29.5 -66.33,-44.5 -3.05,-2.1 -6.55,-3.1 -10.05,-3.1 m 5215.22,-2.4 c -3.5,0 -7,1 -10.1,3.1 -22,15 -44.4,30 -66.5,44.6 -8.2,5.4 -10.5,16.5 -5,24.7 5.3,8.2 16.4,10.5 24.6,5.1 22.3,-14.7 44.8,-29.9 67,-45 8.1,-5.6 10.2,-16.7 4.6,-24.8 -3.4,-5 -9,-7.7 -14.6,-7.7 m -5346.02,-90.3 c -5.52,0 -10.87,2.5 -14.37,7.3 -5.81,7.9 -4.1,19 3.79,24.9 21.59,15.8 43.56,31.7 65.29,47.1 7.97,5.7 19.14,3.8 24.8,-4.3 5.73,-8 3.79,-19.1 -4.25,-24.8 -21.51,-15.3 -43.33,-31 -64.77,-46.7 -3.13,-2.4 -6.85,-3.5 -10.49,-3.5 m 5477.02,-2.8 c -3.7,0 -7.4,1.1 -10.5,3.5 -21.5,15.8 -43.3,31.6 -64.9,46.9 -8.1,5.7 -9.9,16.8 -4.2,24.8 5.7,8 16.8,9.9 24.8,4.2 21.7,-15.4 43.7,-31.3 65.4,-47.2 7.9,-5.9 9.6,-17 3.8,-24.9 -3.5,-4.8 -8.9,-7.3 -14.4,-7.3 m -5604.63,-94.4 c -5.28,0 -10.49,2.3 -13.99,6.8 -6.11,7.7 -4.77,18.9 2.98,25 20.91,16.6 42.35,33.2 63.57,49.3 7.82,6 18.99,4.5 25.02,-3.3 5.95,-7.9 4.39,-19 -3.43,-25 -21.07,-16.1 -42.28,-32.5 -63.13,-49 -3.27,-2.5 -7.15,-3.8 -11.02,-3.8 m 5732.33,-3.1 c -3.8,0 -7.7,1.2 -11,3.8 -20.7,16.4 -42,32.9 -63.2,49.1 -7.8,6 -9.3,17.2 -3.3,25 5.9,7.8 17.1,9.3 24.9,3.4 21.4,-16.4 42.8,-33 63.7,-49.5 7.7,-6.2 9,-17.3 2.9,-25.1 -3.5,-4.4 -8.7,-6.7 -14,-6.7 m -5856.5,-98.4 c -5.07,0 -10.05,2.1 -13.63,6.3 -6.33,7.5 -5.43,18.7 2.09,25.1 20.32,17.1 41.09,34.5 61.94,51.5 7.59,6.2 18.83,5.1 25.01,-2.5 6.25,-7.7 5.14,-18.9 -2.46,-25.1 -20.69,-16.9 -41.31,-34.1 -61.41,-51.1 -3.36,-2.9 -7.45,-4.2 -11.54,-4.2 m 5980.8,-3.5 c -4.1,0 -8.2,1.4 -11.6,4.3 -20.1,17.1 -40.8,34.4 -61.4,51.2 -7.6,6.3 -8.7,17.5 -2.4,25.1 6.2,7.6 17.4,8.7 25,2.5 20.8,-17 41.5,-34.4 61.9,-51.7 7.5,-6.3 8.4,-17.6 2.1,-25.1 -3.6,-4.1 -8.5,-6.3 -13.6,-6.3 M 8546.99,10202 c -4.91,0 -9.68,2 -13.25,5.9 -6.55,7.3 -6.03,18.5 1.26,25.1 19.81,18.1 40.06,36.1 60.08,53.7 7.37,6.5 18.61,5.7 25.17,-1.7 6.47,-7.4 5.73,-18.6 -1.72,-25.1 -19.87,-17.4 -39.9,-35.4 -59.63,-53.2 -3.42,-3.1 -7.67,-4.7 -11.91,-4.7 m 6222.01,-3.6 c -4.3,0 -8.6,1.5 -12,4.6 -19.6,17.9 -39.6,35.8 -59.5,53.4 -7.5,6.5 -8.2,17.7 -1.7,25.1 6.5,7.4 17.7,8.1 25.2,1.6 20.1,-17.7 40.3,-35.8 60.1,-53.7 7.2,-6.7 7.7,-17.9 1.1,-25.2 -3.5,-3.9 -8.4,-5.8 -13.2,-5.8 m -6338.97,-106.3 c -4.69,0 -9.3,1.8 -12.8,5.4 -6.85,7.1 -6.7,18.3 0.37,25.2 19.13,18.6 38.71,37.3 58.22,55.7 7.15,6.7 18.39,6.4 25.16,-0.8 6.7,-7.2 6.41,-18.4 -0.74,-25.2 -19.43,-18.2 -38.86,-36.8 -57.85,-55.2 -3.42,-3.4 -7.89,-5.1 -12.36,-5.1 m 6455.87,-3.8 c -4.5,0 -9,1.6 -12.5,5 -19,18.6 -38.4,37.2 -57.7,55.4 -7.1,6.7 -7.5,18 -0.7,25.1 6.7,7.2 18,7.6 25.2,0.8 19.3,-18.3 38.9,-37 58.2,-55.8 7,-6.9 7.1,-18.1 0.3,-25.2 -3.5,-3.6 -8.1,-5.3 -12.8,-5.3 M 8316.87,9978.17 c -4.39,0 -8.85,1.65 -12.35,4.97 -7.08,6.8 -7.3,18.06 -0.53,25.16 18.54,19.3 37.45,38.7 56.29,57.7 6.99,7 18.24,7 25.23,0.1 7,-7 7,-18.2 0.08,-25.2 -18.69,-18.8 -37.45,-38.1 -55.84,-57.24 -3.49,-3.64 -8.19,-5.49 -12.88,-5.49 m 6682.03,-3.97 c -4.7,0 -9.4,1.84 -12.9,5.5 -18.5,19.27 -37.2,38.6 -55.8,57.3 -6.9,7 -6.8,18.2 0.1,25.2 7,6.9 18.3,6.8 25.3,-0.1 18.6,-18.9 37.6,-38.4 56.2,-57.8 6.7,-7.09 6.5,-18.36 -0.6,-25.16 -3.5,-3.3 -7.9,-4.94 -12.3,-4.94 M 8207.74,9860.37 c -4.25,0 -8.49,1.51 -11.92,4.54 -7.29,6.57 -7.89,17.83 -1.34,25.16 17.8,19.88 36.03,39.94 54.27,59.6 6.63,7.22 17.95,7.65 25.17,0.96 7.22,-6.69 7.67,-17.95 0.97,-25.18 -18.09,-19.51 -36.26,-39.4 -53.91,-59.13 -3.49,-3.94 -8.33,-5.95 -13.24,-5.95 m 6900.06,-4.03 c -4.8,0 -9.8,2.01 -13.2,5.95 -17.7,19.77 -35.8,39.68 -53.8,59.16 -6.7,7.23 -6.3,18.49 1,25.17 7.2,6.67 18.5,6.25 25.1,-0.98 18.2,-19.63 36.4,-39.7 54.2,-59.63 6.6,-7.34 5.9,-18.59 -1.4,-25.14 -3.4,-3.03 -7.7,-4.53 -11.9,-4.53 M 8102.69,9738.85 c -4.02,0 -8.11,1.36 -11.39,4.14 -7.59,6.3 -8.56,17.53 -2.31,25.08 17.12,20.54 34.69,41.21 52.19,61.46 6.47,7.44 17.72,8.25 25.16,1.82 7.45,-6.43 8.27,-17.68 1.79,-25.12 -17.35,-20.08 -34.77,-40.6 -51.74,-60.98 -3.57,-4.22 -8.64,-6.4 -13.7,-6.4 m 7109.91,-4.02 c -5,0 -10.2,2.19 -13.7,6.41 -16.9,20.41 -34.4,40.92 -51.6,60.97 -6.4,7.45 -5.6,18.7 1.8,25.13 7.5,6.42 18.7,5.58 25.1,-1.87 17.4,-20.2 35,-40.87 52.1,-61.42 6.3,-7.57 5.3,-18.8 -2.3,-25.09 -3.3,-2.77 -7.4,-4.13 -11.4,-4.13 M 8001.89,9613.74 c -3.87,0 -7.67,1.23 -10.95,3.76 -7.74,6.04 -9.15,17.22 -3.12,25 16.38,21.1 33.27,42.38 50.02,63.22 6.18,7.66 17.43,8.87 25.1,2.7 7.66,-6.16 8.85,-17.38 2.67,-25.04 -16.67,-20.69 -33.42,-41.81 -49.65,-62.75 -3.58,-4.52 -8.79,-6.89 -14.07,-6.89 m 7311.21,-3.93 c -5.3,0 -10.5,2.36 -14,6.89 -16.3,20.93 -32.9,42.03 -49.5,62.7 -6.2,7.66 -5,18.87 2.6,25.04 7.7,6.16 18.9,4.93 25.1,-2.72 16.8,-20.83 33.5,-42.09 49.9,-63.18 6,-7.78 4.6,-18.96 -3.1,-25 -3.3,-2.51 -7.2,-3.73 -11,-3.73 M 7905.4,9485.19 c -3.57,0 -7.22,1.1 -10.42,3.38 -7.96,5.77 -9.75,16.9 -4.02,24.87 15.64,21.57 31.72,43.42 47.87,64.94 5.96,7.87 17.12,9.47 24.94,3.56 7.89,-5.9 9.46,-17.06 3.57,-24.93 -16,-21.35 -32.01,-43.04 -47.49,-64.45 -3.5,-4.82 -8.94,-7.37 -14.45,-7.37 m 7503.8,-3.77 c -5.5,0 -10.9,2.57 -14.4,7.4 -15.6,21.5 -31.4,43.15 -47.3,64.35 -5.9,7.87 -4.3,19.03 3.6,24.93 7.8,5.9 19,4.29 24.9,-3.6 16,-21.34 32,-43.15 47.7,-64.83 5.7,-7.97 3.9,-19.11 -4,-24.87 -3.2,-2.27 -6.8,-3.38 -10.5,-3.38 M 7813.46,9353.33 c -3.42,0 -6.85,0.98 -9.9,3.03 -8.19,5.49 -10.35,16.56 -4.91,24.71 14.96,22.23 30.3,44.64 45.63,66.59 5.59,8.06 16.75,10.04 24.79,4.41 8.04,-5.62 10.05,-16.72 4.39,-24.79 -15.18,-21.79 -30.37,-44.02 -45.18,-66.07 -3.5,-5.11 -9.09,-7.88 -14.82,-7.88 m 7687.44,-3.49 c -5.8,0 -11.4,2.78 -14.8,7.9 -14.8,22.03 -30,44.22 -45.1,65.93 -5.6,8.07 -3.6,19.17 4.4,24.79 8.1,5.61 19.2,3.61 24.8,-4.45 15.3,-21.87 30.5,-44.21 45.4,-66.43 5.5,-8.16 3.3,-19.23 -4.8,-24.71 -3.1,-2.05 -6.6,-3.03 -9.9,-3.03 M 7726.06,9218.33 c -3.2,0 -6.48,0.87 -9.38,2.7 -8.34,5.19 -10.87,16.18 -5.66,24.53 14.07,22.68 28.66,45.61 43.26,68.14 5.28,8.25 16.37,10.63 24.56,5.28 8.27,-5.35 10.65,-16.37 5.29,-24.63 -14.44,-22.36 -28.89,-45.12 -42.88,-67.62 -3.43,-5.42 -9.24,-8.4 -15.19,-8.4 m 7861.74,-3.12 c -5.9,0 -11.8,2.99 -15.1,8.41 -14,22.42 -28.3,45.11 -42.8,67.42 -5.3,8.27 -3,19.29 5.3,24.63 8.3,5.33 19.4,2.95 24.6,-5.3 14.6,-22.49 29.1,-45.35 43.1,-67.95 5.2,-8.35 2.7,-19.33 -5.7,-24.53 -3,-1.81 -6.2,-2.68 -9.4,-2.68 M 7643.42,9080.34 c -2.97,0 -6.03,0.76 -8.86,2.37 -8.48,4.9 -11.46,15.79 -6.55,24.32 13.33,23.14 27.1,46.58 40.88,69.62 5.06,8.44 16,11.2 24.42,6.14 8.48,-5.06 11.24,-16 6.17,-24.44 -13.7,-22.86 -27.39,-46.11 -40.57,-69.09 -3.28,-5.72 -9.31,-8.92 -15.49,-8.92 M 15670,9077.7 c -6.2,0 -12.2,3.21 -15.5,8.94 -13.1,22.89 -26.7,46.04 -40.3,68.84 -5.1,8.44 -2.3,19.37 6.2,24.43 8.4,5.03 19.3,2.29 24.4,-6.15 13.7,-22.97 27.4,-46.31 40.6,-69.37 5,-8.54 2,-19.43 -6.5,-24.32 -2.8,-1.61 -5.9,-2.37 -8.9,-2.37 M 7565.63,8939.51 c -2.83,0 -5.66,0.66 -8.34,2.07 -8.64,4.61 -11.99,15.38 -7.37,24.08 12.58,23.69 25.46,47.59 38.41,71.03 4.77,8.61 15.64,11.74 24.2,6.97 8.63,-4.75 11.76,-15.58 7,-24.2 -12.88,-23.26 -25.69,-46.97 -38.12,-70.48 -3.2,-6.03 -9.38,-9.47 -15.78,-9.47 m 8181.77,-2.04 c -6.4,0 -12.6,3.45 -15.8,9.49 -12.4,23.4 -25.1,47.01 -37.9,70.17 -4.8,8.61 -1.6,19.44 7,24.19 8.6,4.75 19.4,1.63 24.2,-6.99 12.9,-23.33 25.8,-47.12 38.2,-70.71 4.6,-8.7 1.3,-19.47 -7.4,-24.08 -2.7,-1.4 -5.5,-2.07 -8.3,-2.07 M 7492.74,8796 c -2.6,0 -5.21,0.58 -7.74,1.79 -8.86,4.3 -12.51,14.96 -8.26,23.81 11.68,24.06 23.82,48.4 35.96,72.35 4.46,8.76 15.18,12.28 23.97,7.82 8.78,-4.45 12.28,-15.18 7.81,-23.94 -12.06,-23.77 -24.04,-47.92 -35.66,-71.8 -3.12,-6.34 -9.45,-10.03 -16.08,-10.03 m 8327.06,-1.3 c -6.6,0 -12.9,3.69 -16,10.04 -11.5,23.74 -23.4,47.77 -35.5,71.4 -4.4,8.79 -0.9,19.49 7.8,23.96 8.8,4.44 19.5,0.93 24,-7.83 12,-23.82 24.1,-48.03 35.7,-71.98 4.3,-8.84 0.6,-19.5 -8.2,-23.8 -2.5,-1.21 -5.2,-1.79 -7.8,-1.79 M 7424.94,8649.99 c -2.42,0 -4.87,0.49 -7.22,1.53 -8.99,3.99 -13.05,14.51 -9.06,23.51 10.91,24.58 22.15,49.34 33.41,73.59 4.14,8.91 14.71,12.8 23.65,8.64 8.93,-4.15 12.8,-14.74 8.63,-23.66 -11.16,-24.05 -22.33,-48.62 -33.12,-73.02 -2.95,-6.64 -9.47,-10.59 -16.29,-10.59 m 8462.26,-0.43 c -6.9,0 -13.3,3.95 -16.3,10.59 -10.7,24.13 -21.8,48.55 -32.9,72.58 -4.2,8.93 -0.3,19.51 8.6,23.66 8.9,4.13 19.5,0.25 23.7,-8.66 11.2,-24.22 22.4,-48.82 33.2,-73.14 3.9,-8.99 -0.1,-19.51 -9.1,-23.5 -2.3,-1.04 -4.8,-1.53 -7.2,-1.53 m 62.3,-147.34 c -7.1,0 -13.8,4.23 -16.5,11.17 -9.9,24.41 -20.1,49.19 -30.4,73.64 -3.9,9.07 0.4,19.51 9.5,23.34 9,3.85 19.5,-0.4 23.3,-9.47 10.4,-24.64 20.7,-49.61 30.6,-74.22 3.7,-9.12 -0.7,-19.5 -9.9,-23.17 -2.1,-0.88 -4.4,-1.29 -6.6,-1.29 m -8587.27,-0.58 c -2.21,0 -4.46,0.42 -6.64,1.28 -9.13,3.67 -13.55,14.05 -9.88,23.18 10.04,24.93 20.4,50.08 30.82,74.74 3.84,9.06 14.29,13.31 23.34,9.47 9.06,-3.83 13.3,-14.28 9.48,-23.34 -10.35,-24.47 -20.64,-49.42 -30.59,-74.17 -2.8,-6.94 -9.47,-11.16 -16.53,-11.16 m 8644.57,-149.42 c -7.3,0 -14.1,4.51 -16.7,11.75 -9.1,24.99 -18.5,50.21 -27.9,74.95 -3.5,9.19 1.1,19.49 10.2,23 9.3,3.5 19.5,-1.1 23,-10.27 9.6,-24.94 19,-50.36 28.2,-75.54 3.3,-9.25 -1.4,-19.47 -10.7,-22.82 -2.1,-0.73 -4.1,-1.07 -6.1,-1.07 m -8702.07,-1.1 c -2.01,0 -4.05,0.34 -6.06,1.07 -9.24,3.34 -14.03,13.56 -10.68,22.8 9.13,25.22 18.61,50.72 28.19,75.82 3.52,9.18 13.81,13.77 23,10.28 9.19,-3.51 13.8,-13.81 10.28,-22.99 -9.5,-24.9 -18.92,-50.21 -27.98,-75.23 -2.62,-7.25 -9.46,-11.75 -16.75,-11.75 m 8754.17,-150.81 c -7.6,0 -14.6,4.8 -17,12.34 -8.2,25.34 -16.7,50.87 -25.2,75.88 -3.2,9.31 1.7,19.43 11,22.62 9.4,3.18 19.5,-1.77 22.7,-11.07 8.6,-25.21 17.2,-50.94 25.4,-76.48 3,-9.36 -2.1,-19.39 -11.4,-22.42 -1.9,-0.59 -3.7,-0.87 -5.5,-0.87 m -8806.36,-1.69 c -1.81,0 -3.65,0.28 -5.46,0.87 -9.36,3.01 -14.51,13.05 -11.49,22.41 8.27,25.62 16.86,51.46 25.53,76.79 3.19,9.3 13.32,14.28 22.61,11.07 9.32,-3.18 14.28,-13.31 11.1,-22.61 -8.61,-25.13 -17.14,-50.77 -25.34,-76.18 -2.43,-7.55 -9.42,-12.35 -16.95,-12.35 m 8852.96,-151.95 c -7.7,0 -14.8,5.11 -17.1,12.94 -7.2,25.49 -14.8,51.31 -22.5,76.72 -2.9,9.41 2.4,19.36 11.8,22.22 9.5,2.84 19.4,-2.44 22.3,-11.86 7.7,-25.61 15.4,-51.63 22.7,-77.32 2.7,-9.46 -2.8,-19.31 -12.2,-22.01 -1.7,-0.46 -3.3,-0.69 -5,-0.69 m -8899.69,-2.03 c -1.62,0 -3.25,0.22 -4.88,0.69 -9.46,2.68 -14.95,12.54 -12.25,22 7.31,25.7 14.95,51.72 22.72,77.33 2.87,9.42 12.81,14.74 22.21,11.87 9.42,-2.85 14.74,-12.8 11.89,-22.21 -7.72,-25.41 -15.31,-51.23 -22.56,-76.74 -2.24,-7.82 -9.37,-12.94 -17.13,-12.94 M 16146.9,7891.5 c -8.1,0 -15.3,5.43 -17.3,13.54 -6.4,25.75 -13.1,51.81 -19.9,77.46 -2.5,9.51 3.1,19.26 12.6,21.79 9.5,2.55 19.3,-3.13 21.8,-12.62 6.9,-25.86 13.6,-52.12 20,-78.08 2.4,-9.54 -3.4,-19.2 -12.9,-21.56 -1.5,-0.35 -2.9,-0.53 -4.3,-0.53 m -8982.32,-2.06 c -1.41,0 -2.85,0.17 -4.28,0.53 -9.55,2.35 -15.37,12.01 -13.02,21.56 6.42,25.95 13.15,52.23 20.02,78.08 2.52,9.5 12.28,15.14 21.78,12.63 9.5,-2.52 15.17,-12.28 12.64,-21.78 -6.82,-25.65 -13.5,-51.72 -19.85,-77.47 -2.02,-8.12 -9.28,-13.55 -17.29,-13.55 m 9018.12,-154.47 c -8.2,0 -15.7,5.76 -17.4,14.14 -5.5,26.09 -11.3,52.37 -17.2,78.12 -2.2,9.59 3.8,19.15 13.4,21.33 9.6,2.22 19.2,-3.79 21.3,-13.38 6,-25.94 11.8,-52.43 17.4,-78.71 2,-9.64 -4.2,-19.08 -13.8,-21.11 -1.3,-0.26 -2.5,-0.39 -3.7,-0.39 m -9053.89,-2.07 c -1.22,0 -2.45,0.12 -3.69,0.38 -9.62,2.04 -15.78,11.48 -13.76,21.1 5.49,26.1 11.3,52.58 17.28,78.73 2.19,9.59 11.73,15.58 21.33,13.39 9.58,-2.19 15.59,-11.74 13.39,-21.33 -5.93,-25.95 -11.7,-52.23 -17.14,-78.11 -1.76,-8.4 -9.16,-14.16 -17.41,-14.16 M 16213,7577.3 c -8.4,0 -16,6.1 -17.5,14.75 -4.5,25.98 -9.3,52.45 -14.4,78.66 -1.9,9.66 4.5,19 14.2,20.86 9.6,1.86 18.9,-4.47 20.8,-14.12 5.1,-26.42 10,-53.09 14.5,-79.27 1.7,-9.7 -4.7,-18.93 -14.4,-20.61 -1.1,-0.18 -2.1,-0.27 -3.2,-0.27 m -9114.48,-2.09 c -1.02,0 -2.04,0.09 -3.08,0.27 -9.69,1.68 -16.18,10.9 -14.49,20.6 4.56,26.14 9.43,52.82 14.51,79.28 1.86,9.65 11.16,15.96 20.86,14.14 9.65,-1.85 15.98,-11.19 14.13,-20.85 -5.04,-26.27 -9.88,-52.73 -14.4,-78.68 -1.51,-8.66 -9.03,-14.76 -17.53,-14.76 m 9139.38,-156.54 c -8.7,0 -16.4,6.4 -17.6,15.33 -3.6,26.27 -7.6,52.9 -11.6,79.14 -1.6,9.72 5,18.83 14.8,20.35 9.7,1.53 18.8,-5.12 20.3,-14.84 4.2,-26.44 8.1,-53.27 11.8,-79.73 1.4,-9.75 -5.5,-18.76 -15.2,-20.1 -0.9,-0.08 -1.7,-0.15 -2.5,-0.15 m -9164.16,-2.09 c -0.82,0 -1.64,0 -2.46,0.15 -9.75,1.34 -16.55,10.35 -15.21,20.1 3.65,26.36 7.6,53.19 11.74,79.72 1.52,9.73 10.64,16.34 20.35,14.85 9.72,-1.52 16.37,-10.62 14.85,-20.34 -4.12,-26.33 -8.04,-52.96 -11.66,-79.14 -1.23,-8.93 -8.86,-15.34 -17.61,-15.34 m 9183.56,-157.31 c -9,0 -16.8,6.78 -17.8,15.94 -2.7,26.5 -5.7,53.23 -8.9,79.51 -1.2,9.75 5.8,18.61 15.6,19.8 9.7,1.19 18.6,-5.73 19.8,-15.56 3.2,-26.43 6.2,-53.38 9,-80.1 1,-9.76 -6.1,-18.54 -15.9,-19.51 l -1.8,-0.08 m -9202.83,-2.15 -1.85,0.15 c -9.78,0.96 -16.89,9.75 -15.88,19.5 2.75,26.73 5.78,53.68 8.97,80.11 1.18,9.75 10.02,16.75 19.82,15.55 9.76,-1.18 16.73,-10.04 15.54,-19.8 -3.17,-26.28 -6.17,-53 -8.9,-79.51 -0.96,-9.15 -8.69,-16 -17.7,-16 M 16271,7099.29 c -9.2,0 -17,7.15 -17.7,16.53 -1.8,26.65 -3.9,53.45 -6.2,79.81 -0.9,9.75 6.4,18.38 16.3,19.28 9.7,0.74 18.4,-6.41 19.2,-16.23 2.3,-26.51 4.4,-53.53 6.2,-80.33 0.7,-9.83 -6.7,-18.39 -16.5,-19.06 h -1.3 m -9230.26,-2.16 -1.24,0.07 c -9.82,0.68 -17.23,9.16 -16.55,18.99 1.82,26.73 3.91,53.75 6.2,80.33 0.84,9.82 9.39,17.12 19.26,16.23 9.81,-0.82 17.07,-9.46 16.22,-19.29 -2.27,-26.35 -4.34,-53.15 -6.15,-79.73 -0.64,-9.38 -8.47,-16.6 -17.74,-16.6 m 9238.66,-158.27 c -9.6,0 -17.5,7.59 -17.8,17.27 -0.9,26.65 -2.1,53.53 -3.4,79.88 -0.6,9.83 7,18.24 16.8,18.69 9.9,0.44 18.2,-7 18.7,-16.83 1.4,-26.58 2.6,-53.67 3.5,-80.55 0.3,-9.83 -7.4,-18.09 -17.2,-18.39 l -0.6,-0.07 m -9246.9,-2.09 h -0.62 c -9.83,0.37 -17.53,8.64 -17.19,18.46 0.91,26.8 2.08,53.91 3.43,80.48 0.51,9.83 9.01,17.42 18.71,16.9 9.82,-0.52 17.37,-8.86 16.87,-18.69 -1.35,-26.43 -2.5,-53.3 -3.41,-79.95 -0.33,-9.6 -8.24,-17.2 -17.79,-17.2 m 9249.7,-158.27 c -9.8,0 -17.8,7.96 -17.8,17.79 -0.1,26.58 -0.3,53.53 -0.7,79.96 -0.2,9.9 7.6,17.94 17.5,18.16 9.5,0 17.9,-7.67 18.1,-17.49 0.5,-26.73 0.7,-53.83 0.7,-80.63 0,-9.83 -8,-17.79 -17.8,-17.79 m -9252.44,-6.7 c -9.84,0 -17.81,7.96 -17.81,17.79 v 4.47 c 0,26.72 0.23,53.82 0.68,80.55 0.17,9.83 8.55,17.49 18.11,17.57 9.84,-0.23 17.67,-8.34 17.51,-18.17 -0.45,-26.5 -0.69,-53.45 -0.69,-79.95 v -4.47 c 0,-9.83 -7.96,-17.79 -17.8,-17.79 m 9249.74,-153.89 h -0.6 c -9.8,0.38 -17.5,8.64 -17.2,18.39 0.9,26.5 1.6,53.45 2,80.03 0.2,9.83 8.5,17.42 18.1,17.5 9.9,-0.15 17.7,-8.27 17.5,-18.09 -0.4,-26.8 -1.1,-53.9 -2,-80.63 -0.3,-9.6 -8.2,-17.2 -17.8,-17.2 m -9246.87,-6.55 c -9.54,0 -17.45,7.6 -17.79,17.2 -0.93,26.58 -1.64,53.6 -2.13,80.4 -0.18,9.83 7.65,17.94 17.49,18.17 h 0.32 c 9.69,0 17.62,-7.82 17.8,-17.5 0.49,-26.65 1.19,-53.45 2.12,-79.8 0.35,-9.83 -7.35,-18.09 -17.18,-18.47 h -0.63 m 9238.77,-153.81 -1.3,0.08 c -9.7,0.67 -17.2,9.16 -16.5,18.98 1.8,26.36 3.4,53.23 4.8,79.81 0.4,9.83 8.8,17.42 18.7,16.9 9.8,-0.52 17.3,-8.86 16.9,-18.69 -1.4,-26.8 -3,-53.9 -4.9,-80.47 -0.6,-9.39 -8.4,-16.61 -17.7,-16.61 M 7041,6451 c -9.27,0 -17.09,7.15 -17.75,16.6 -1.85,26.66 -3.51,53.75 -4.89,80.41 -0.52,9.82 7.03,18.24 16.85,18.76 9.71,0.37 18.21,-7.08 18.72,-16.9 1.38,-26.43 3.01,-53.3 4.86,-79.81 0.68,-9.82 -6.72,-18.31 -16.53,-18.98 L 7041,6451 m 9216.7,-153.43 -1.8,0.07 c -9.8,1.04 -16.9,9.75 -15.9,19.58 2.7,26.21 5.2,53.01 7.5,79.59 0.8,9.82 9.6,17.12 19.2,16.22 9.9,-0.81 17.1,-9.45 16.3,-19.2 -2.3,-26.88 -4.8,-53.83 -7.6,-80.26 -0.9,-9.15 -8.7,-16 -17.7,-16 m -9202.82,-6.55 c -9.01,0 -16.74,6.84 -17.69,16 -2.78,26.58 -5.36,53.6 -7.67,80.18 -0.84,9.83 6.41,18.46 16.2,19.28 9.88,0.9 18.44,-6.4 19.29,-16.15 2.29,-26.43 4.85,-53.23 7.61,-79.66 1.01,-9.75 -6.09,-18.54 -15.88,-19.51 l -1.86,-0.14 m 9183.72,-152.84 c -0.8,0 -1.7,0 -2.5,0.14 -9.7,1.34 -16.6,10.35 -15.2,20.1 3.6,26.28 7.1,53.01 10.2,79.29 1.2,9.75 10,16.68 19.8,15.56 9.8,-1.19 16.8,-10.05 15.6,-19.8 -3.2,-26.5 -6.6,-53.46 -10.3,-79.96 -1.2,-8.93 -8.9,-15.33 -17.6,-15.33 m -9164.32,-6.56 c -8.75,0 -16.37,6.48 -17.62,15.34 -3.67,26.43 -7.19,53.3 -10.44,79.96 -1.18,9.75 5.77,18.61 15.53,19.8 9.73,1.19 18.65,-5.73 19.83,-15.49 3.24,-26.5 6.71,-53.15 10.37,-79.36 1.35,-9.67 -5.44,-18.68 -15.19,-20.1 -0.83,-0.07 -1.66,-0.15 -2.48,-0.15 m 9139.62,-152.17 c -1.1,0 -2,0.15 -3.1,0.3 -9.7,1.71 -16.2,10.87 -14.5,20.62 4.5,26.13 8.9,52.71 12.9,78.92 1.6,9.68 10.7,16.3 20.4,14.81 9.7,-1.49 16.4,-10.57 14.9,-20.32 -4.1,-26.43 -8.5,-53.16 -13.1,-79.51 -1.5,-8.71 -9,-14.82 -17.5,-14.82 m -9114.68,-6.47 c -8.49,0 -16,6.1 -17.52,14.74 -4.6,26.28 -9.04,53 -13.21,79.51 -1.52,9.75 5.11,18.83 14.83,20.4 9.78,1.49 18.84,-5.14 20.36,-14.82 4.13,-26.35 8.54,-52.86 13.1,-78.91 1.7,-9.68 -4.77,-18.91 -14.47,-20.63 -1.03,-0.14 -2.07,-0.29 -3.09,-0.29 m 9084.38,-151.21 c -1.2,0 -2.4,0.08 -3.6,0.38 -9.7,2.01 -15.9,11.46 -13.8,21.07 5.5,26.05 10.7,52.48 15.7,78.46 1.9,9.61 11.3,15.94 20.9,14.15 9.7,-1.86 16,-11.24 14.1,-20.85 -5,-26.2 -10.3,-52.78 -15.8,-79.06 -1.8,-8.41 -9.2,-14.15 -17.5,-14.15 m -9053.94,-6.4 c -8.23,0 -15.63,5.74 -17.4,14.07 -5.54,26.21 -10.92,52.86 -15.97,79.07 -1.86,9.6 4.45,18.98 14.11,20.84 9.67,1.79 19.01,-4.47 20.86,-14.14 5.02,-25.99 10.35,-52.34 15.85,-78.4 2.03,-9.6 -4.12,-19.05 -13.75,-21.07 -1.23,-0.29 -2.47,-0.37 -3.7,-0.37 m 9018.24,-150.16 c -1.4,0 -2.8,0.15 -4.2,0.52 -9.6,2.31 -15.4,11.99 -13.1,21.52 6.4,25.91 12.6,52.11 18.5,77.87 2.2,9.6 11.7,15.56 21.3,13.4 9.6,-2.16 15.6,-11.76 13.4,-21.37 -5.9,-25.9 -12.1,-52.33 -18.5,-78.39 -2.1,-8.11 -9.4,-13.55 -17.4,-13.55 m -8982.3,-6.4 c -7.99,0 -15.26,5.43 -17.27,13.55 -6.43,25.91 -12.73,52.34 -18.72,78.39 -2.19,9.61 3.79,19.14 13.38,21.37 9.57,2.16 19.14,-3.8 21.34,-13.4 5.94,-25.91 12.18,-52.04 18.57,-77.8 2.37,-9.53 -3.45,-19.21 -13,-21.59 -1.44,-0.3 -2.88,-0.52 -4.3,-0.52 m 8941.2,-148.82 c -1.6,0 -3.3,0.22 -4.9,0.67 -9.5,2.68 -15,12.51 -12.3,22.04 7.3,25.61 14.5,51.59 21.2,77.12 2.5,9.46 12.2,15.12 21.8,12.66 9.5,-2.53 15.2,-12.28 12.6,-21.81 -6.8,-25.76 -14,-51.89 -21.3,-77.73 -2.2,-7.81 -9.3,-12.95 -17.1,-12.95 m -8899.82,-6.33 c -7.75,0 -14.88,5.14 -17.12,12.96 -7.33,25.68 -14.54,51.81 -21.45,77.64 -2.53,9.53 3.12,19.29 12.62,21.82 9.48,2.53 19.27,-3.13 21.8,-12.58 6.85,-25.69 14,-51.67 21.29,-77.13 2.7,-9.46 -2.78,-19.28 -12.24,-21.96 -1.64,-0.53 -3.29,-0.75 -4.9,-0.75 m 8853.12,-147.7 c -1.8,0 -3.6,0.3 -5.5,0.89 -9.3,2.98 -14.5,13.03 -11.4,22.41 8.1,25.54 16.3,51.29 23.9,76.68 2.9,9.38 12.8,14.67 22.2,11.84 9.4,-2.83 14.8,-12.81 11.9,-22.19 -7.7,-25.53 -15.8,-51.52 -24.2,-77.28 -2.4,-7.51 -9.3,-12.35 -16.9,-12.35 m -8806.34,-5.88 c -7.51,0 -14.5,4.76 -16.94,12.28 -8.26,25.54 -16.39,51.44 -24.16,76.9 -2.85,9.46 2.45,19.36 11.86,22.27 9.42,2.82 19.36,-2.46 22.23,-11.84 7.69,-25.32 15.76,-51 23.96,-76.31 3.02,-9.38 -2.11,-19.43 -11.46,-22.48 -1.82,-0.53 -3.67,-0.82 -5.49,-0.82 M 16008,5203.49 c -2.1,0 -4.1,0.3 -6.1,1.04 -9.2,3.35 -14,13.55 -10.6,22.78 9,25.09 17.9,50.55 26.5,75.72 3.2,9.3 13.4,14.29 22.7,11.09 9.3,-3.13 14.3,-13.25 11.1,-22.56 -8.7,-25.39 -17.7,-51.07 -26.9,-76.38 -2.6,-7.22 -9.5,-11.69 -16.7,-11.69 m -8702.11,-5.28 c -7.27,0 -14.11,4.46 -16.74,11.68 -9.14,25.16 -18.17,50.78 -26.84,76.01 -3.18,9.31 1.77,19.43 11.08,22.64 9.31,3.27 19.43,-1.72 22.63,-11.1 8.59,-25.01 17.54,-50.4 26.62,-75.34 3.36,-9.3 -1.42,-19.5 -10.67,-22.85 -2.01,-0.75 -4.06,-1.04 -6.08,-1.04 m 8644.61,-145.33 c -2.2,0 -4.4,0.45 -6.6,1.34 -9.1,3.65 -13.5,14 -9.9,23.16 9.9,24.64 19.7,49.73 29.3,74.74 3.5,9.16 13.7,13.77 23,10.28 9.1,-3.5 13.8,-13.78 10.3,-23.01 -9.7,-25.16 -19.6,-50.47 -29.5,-75.34 -2.8,-6.92 -9.5,-11.17 -16.6,-11.17 m -8587.2,-4.69 c -7.05,0 -13.73,4.25 -16.53,11.17 -10,24.87 -19.92,50.1 -29.47,75.04 -3.51,9.16 1.09,19.43 10.27,23.01 9.18,3.5 19.49,-1.12 23.01,-10.28 9.46,-24.79 19.3,-49.8 29.24,-74.44 3.67,-9.16 -0.74,-19.51 -9.87,-23.23 -2.18,-0.82 -4.44,-1.27 -6.65,-1.27 m 8524.6,-143.68 c -2.4,0 -4.9,0.52 -7.2,1.56 -9,3.95 -13,14.52 -9.1,23.53 10.8,24.34 21.5,49.13 31.9,73.63 3.8,9.01 14.2,13.25 23.3,9.45 9.1,-3.79 13.3,-14.29 9.5,-23.37 -10.4,-24.65 -21.2,-49.59 -32.1,-74.15 -2.9,-6.71 -9.5,-10.65 -16.3,-10.65 m -8462.23,-3.65 c -6.84,0 -13.34,3.95 -16.29,10.65 -10.87,24.42 -21.61,49.21 -31.95,73.63 -3.83,9.08 0.41,19.5 9.46,23.37 9.08,3.8 19.52,-0.44 23.35,-9.45 10.25,-24.27 20.91,-48.84 31.69,-73.11 3.99,-9.01 -0.06,-19.5 -9.05,-23.52 -2.34,-1.05 -4.8,-1.57 -7.21,-1.57 m 8394.43,-142.34 c -2.6,0 -5.2,0.52 -7.7,1.78 -8.9,4.25 -12.6,14.89 -8.3,23.76 11.7,24.04 23.2,48.46 34.4,72.43 4.2,8.94 14.7,12.81 23.7,8.71 8.9,-4.17 12.8,-14.74 8.6,-23.67 -11.2,-24.2 -22.8,-48.76 -34.6,-73.04 -3.1,-6.32 -9.5,-9.97 -16.1,-9.97 m -8326.99,-2.75 c -6.55,0 -12.95,3.72 -16,10.05 -11.62,23.89 -23.23,48.31 -34.5,72.51 -4.15,8.93 -0.29,19.5 8.67,23.67 8.85,4.17 19.5,0.3 23.6,-8.64 11.24,-24.04 22.7,-48.24 34.24,-71.99 4.32,-8.85 0.67,-19.5 -8.19,-23.82 -2.53,-1.19 -5.21,-1.78 -7.82,-1.78 m 8254.19,-140.79 c -2.7,0 -5.7,0.6 -8.3,2.01 -8.7,4.62 -12,15.42 -7.4,24.13 12.4,23.45 24.9,47.42 36.9,71.17 4.4,8.71 15.1,12.28 23.9,7.81 8.8,-4.46 12.3,-15.18 7.8,-23.97 -12.1,-23.9 -24.6,-48.02 -37.1,-71.69 -3.2,-6.03 -9.4,-9.46 -15.8,-9.46 m -8181.67,-1.93 c -6.41,0 -12.59,3.42 -15.71,9.45 -12.51,23.53 -24.94,47.58 -37.08,71.33 -4.46,8.78 -0.96,19.5 7.82,23.97 8.79,4.46 19.5,0.96 23.97,-7.82 11.99,-23.6 24.35,-47.42 36.7,-70.8 4.62,-8.71 1.35,-19.43 -7.36,-24.05 -2.69,-1.41 -5.52,-2.08 -8.34,-2.08 m 8103.97,-138.99 c -3,0 -6,0.82 -8.9,2.38 -8.5,4.91 -11.4,15.78 -6.5,24.34 13.3,23.15 26.5,46.61 39.3,69.83 4.7,8.56 15.5,11.69 24.2,7 8.6,-4.76 11.7,-15.63 7,-24.27 -12.9,-23.3 -26.2,-46.97 -39.6,-70.35 -3.4,-5.73 -9.3,-8.93 -15.5,-8.93 m -8026.55,-1.19 c -6.1,0 -12.13,3.2 -15.41,8.93 -13.25,23 -26.58,46.6 -39.53,70.05 -4.77,8.56 -1.64,19.43 7,24.2 8.63,4.76 19.43,1.64 24.19,-7 12.88,-23.23 26.06,-46.68 39.16,-69.53 4.92,-8.49 2.01,-19.36 -6.55,-24.27 -2.75,-1.64 -5.81,-2.38 -8.86,-2.38 M 15587,4336.03 c -3.2,0 -6.5,0.89 -9.4,2.68 -8.3,5.21 -10.9,16.23 -5.7,24.57 14,22.56 28.1,45.56 41.7,68.34 5.1,8.49 16,11.24 24.4,6.18 8.5,-5.06 11.3,-16.01 6.2,-24.42 -13.8,-23 -27.9,-46.23 -42.1,-68.94 -3.3,-5.43 -9.1,-8.41 -15.1,-8.41 m -7861.61,-0.67 c -5.96,0 -11.76,2.98 -15.19,8.41 -14.07,22.56 -28.14,45.71 -41.91,68.64 -4.99,8.49 -2.31,19.43 6.18,24.42 8.41,5.06 19.36,2.31 24.42,-6.1 13.62,-22.78 27.62,-45.71 41.54,-68.12 5.21,-8.34 2.68,-19.36 -5.66,-24.57 -2.98,-1.78 -6.18,-2.68 -9.38,-2.68 m 7774.31,-134.37 c -3.4,0 -6.9,0.96 -9.9,3.05 -8.1,5.43 -10.4,16.52 -4.8,24.71 14.8,22.11 29.6,44.6 44,66.86 5.4,8.26 16.4,10.64 24.7,5.28 8.2,-5.36 10.5,-16.38 5.3,-24.64 -14.6,-22.41 -29.5,-45.12 -44.5,-67.38 -3.4,-5.13 -9.1,-7.88 -14.8,-7.88 m -7687.35,-0.23 c -5.74,0 -11.32,2.83 -14.75,7.89 -14.96,22.26 -29.85,44.89 -44.29,67.23 -5.36,8.26 -2.98,19.28 5.28,24.64 8.27,5.28 19.29,2.98 24.65,-5.29 14.29,-22.18 29.11,-44.59 43.92,-66.7 5.43,-8.19 3.28,-19.21 -4.84,-24.72 -3.05,-2.01 -6.55,-3.05 -9.97,-3.05 m 91.71,-131.55 c -5.58,0 -11.02,2.61 -14.51,7.45 -15.71,21.74 -31.34,43.77 -46.53,65.58 -5.66,8.12 -3.65,19.21 4.39,24.8 8.11,5.66 19.21,3.64 24.79,-4.4 15.11,-21.66 30.67,-43.55 46.23,-65.14 5.81,-7.96 3.95,-19.13 -4.02,-24.86 -3.13,-2.31 -6.77,-3.43 -10.35,-3.43 m 7503.74,-0.07 c -3.6,0 -7.3,1.04 -10.4,3.35 -8,5.73 -9.8,16.9 -4,24.86 15.5,21.52 31.2,43.48 46.4,65.29 5.5,8.04 16.6,10.06 24.8,4.47 8,-5.66 10,-16.75 4.3,-24.79 -15.2,-21.96 -30.9,-44.15 -46.6,-65.81 -3.5,-4.84 -9,-7.37 -14.5,-7.37 m -7407.62,-128.2 c -5.29,0 -10.58,2.38 -14.08,6.85 -16.45,21.22 -32.9,42.73 -48.83,64.02 -5.88,7.89 -4.25,19.06 3.57,24.94 7.89,5.88 19.06,4.32 24.94,-3.57 15.78,-21.14 32.09,-42.51 48.47,-63.5 6.03,-7.82 4.61,-18.99 -3.13,-25.02 -3.28,-2.53 -7.07,-3.72 -10.94,-3.72 m 7311.22,-0.45 c -3.8,0 -7.7,1.27 -10.9,3.8 -7.8,6.03 -9.2,17.2 -3.2,24.94 16.3,20.85 32.7,42.28 48.7,63.65 5.8,7.89 17,9.46 24.9,3.57 7.8,-5.88 9.5,-17.04 3.6,-24.94 -16.2,-21.51 -32.6,-43.1 -49,-64.09 -3.5,-4.55 -8.7,-6.93 -14.1,-6.93 M 8100.75,3815.94 c -5.06,0 -10.12,2.16 -13.69,6.41 -17.13,20.54 -34.25,41.46 -51,62.31 -6.18,7.67 -4.99,18.83 2.68,25.01 7.67,6.18 18.91,4.99 25.09,-2.68 16.6,-20.62 33.65,-41.47 50.62,-61.86 6.26,-7.52 5.29,-18.77 -2.31,-25.02 -3.35,-2.83 -7.37,-4.17 -11.39,-4.17 m 7109.95,-0.59 c -4,0 -8.1,1.34 -11.4,4.09 -7.6,6.33 -8.6,17.57 -2.3,25.09 17.1,20.62 34.2,41.39 50.8,61.94 6.1,7.67 17.3,8.86 25,2.68 7.6,-6.18 8.8,-17.34 2.7,-25.01 -16.6,-20.7 -33.8,-41.69 -51.1,-62.39 -3.5,-4.24 -8.6,-6.4 -13.7,-6.4 M 8205.57,3694.52 c -4.83,0 -9.75,2.01 -13.25,5.88 -17.94,20.1 -35.8,40.43 -53.15,60.53 -6.4,7.44 -5.58,18.68 1.86,25.16 7.44,6.4 18.69,5.58 25.09,-1.86 17.27,-19.95 34.99,-40.2 52.78,-60.08 6.55,-7.3 5.88,-18.61 -1.41,-25.16 -3.43,-2.98 -7.67,-4.47 -11.92,-4.47 m 6900.13,-0.74 c -4.2,0 -8.5,1.48 -11.8,4.54 -7.4,6.55 -8,17.79 -1.4,25.09 17.8,19.95 35.5,40.2 52.8,60.15 6.4,7.44 17.6,8.26 25,1.79 7.5,-6.41 8.3,-17.65 1.9,-25.1 -17.3,-20.09 -35.3,-40.49 -53.2,-60.52 -3.5,-3.94 -8.4,-5.95 -13.3,-5.95 M 8314.64,3576.67 c -4.69,0 -9.38,1.86 -12.88,5.51 -18.46,19.28 -37.07,39.01 -55.24,58.66 -6.7,7.22 -6.25,18.47 0.97,25.17 7.22,6.7 18.46,6.25 25.16,-0.97 18.09,-19.51 36.48,-39.09 54.79,-58.22 6.86,-7.15 6.56,-18.39 -0.52,-25.16 -3.42,-3.35 -7.89,-4.99 -12.28,-4.99 m 6682.06,-0.75 c -4.5,0 -9,1.64 -12.4,4.92 -7.1,6.85 -7.4,18.09 -0.5,25.24 18.4,19.2 36.8,38.78 54.8,58.21 6.7,7.22 18,7.67 25.1,0.97 7.3,-6.7 7.7,-17.94 1.1,-25.16 -18.1,-19.58 -36.7,-39.31 -55.3,-58.67 -3.5,-3.64 -8.2,-5.51 -12.8,-5.51 M 8427.65,3462.69 c -4.47,0 -9.01,1.64 -12.43,5.06 -19.21,18.69 -38.49,37.82 -57.25,56.73 -6.92,7 -6.85,18.24 0.15,25.16 7,6.93 18.24,6.85 25.16,-0.07 18.61,-18.76 37.67,-37.75 56.8,-56.36 7,-6.85 7.15,-18.09 0.3,-25.16 -3.5,-3.57 -8.11,-5.36 -12.73,-5.36 m 6455.95,-0.74 c -4.6,0 -9.3,1.78 -12.8,5.36 -6.9,7.07 -6.7,18.31 0.3,25.16 19.2,18.76 38.3,37.67 56.8,56.35 7,6.93 18.2,7 25.2,0.08 7,-6.92 7.1,-18.24 0.1,-25.16 -18.6,-18.84 -37.8,-37.9 -57.2,-56.73 -3.5,-3.42 -8,-5.06 -12.4,-5.06 M 8544.53,3352.58 c -4.24,0 -8.56,1.57 -11.91,4.62 -19.73,17.94 -39.6,36.33 -59.18,54.79 -7.15,6.7 -7.52,18.02 -0.82,25.16 6.77,7.15 18.09,7.52 25.24,0.75 19.43,-18.31 39.15,-36.55 58.66,-54.27 7.29,-6.63 7.82,-17.95 1.19,-25.17 -3.5,-3.87 -8.34,-5.88 -13.18,-5.88 m 6222.17,-0.67 c -4.9,0 -9.7,2.01 -13.2,5.88 -6.6,7.23 -6.1,18.54 1.2,25.09 19.6,17.87 39.4,36.19 58.7,54.35 7.1,6.7 18.4,6.4 25.1,-0.82 6.8,-7.15 6.4,-18.39 -0.7,-25.16 -19.4,-18.32 -39.4,-36.7 -59.1,-54.72 -3.5,-3.05 -7.8,-4.62 -12,-4.62 M 8665.21,3246.57 c -4.02,0 -8.11,1.41 -11.46,4.24 -20.62,17.5 -41.1,35.22 -61.05,52.71 -7.37,6.48 -8.11,17.72 -1.64,25.16 6.48,7.38 17.72,8.12 25.17,1.57 19.73,-17.35 40.12,-34.92 60.52,-52.26 7.52,-6.33 8.41,-17.57 2.09,-25.09 -3.5,-4.17 -8.57,-6.33 -13.63,-6.33 m 5980.89,-0.52 c -5.1,0 -10.1,2.16 -13.6,6.33 -6.4,7.44 -5.5,18.68 2,25.09 20.2,17.12 40.5,34.69 60.6,52.18 7.3,6.48 18.6,5.73 25.1,-1.63 6.5,-7.37 5.8,-18.62 -1.6,-25.09 -20.2,-17.72 -40.7,-35.44 -61,-52.64 -3.4,-2.83 -7.4,-4.24 -11.5,-4.24 M 8789.54,3144.8 c -3.87,0 -7.74,1.26 -11.02,3.87 -21.22,16.68 -42.36,33.73 -62.83,50.55 -7.6,6.25 -8.71,17.42 -2.53,25.09 6.25,7.59 17.49,8.71 25.09,2.46 20.32,-16.68 41.31,-33.58 62.38,-50.18 7.67,-6.11 9.01,-17.27 2.9,-25.01 -3.49,-4.47 -8.71,-6.78 -13.99,-6.78 m 5732.46,-0.37 c -5.3,0 -10.5,2.31 -14,6.77 -6.1,7.74 -4.9,18.91 2.9,25.02 20.8,16.45 41.8,33.28 62.2,50.1 7.6,6.18 18.9,5.14 25.1,-2.53 6.3,-7.59 5.1,-18.84 -2.5,-25.02 -20.6,-16.97 -41.8,-33.94 -62.7,-50.47 -3.3,-2.6 -7.2,-3.87 -11,-3.87 m -5604.71,-97.08 c -3.65,0 -7.3,1.12 -10.49,3.5 -21.52,15.78 -43.26,32.09 -64.55,48.32 -7.82,5.95 -9.38,17.12 -3.43,25.01 6.03,7.82 17.2,9.3 25.02,3.35 21.14,-16.16 42.73,-32.31 64.02,-48.02 7.97,-5.81 9.68,-16.97 3.8,-24.86 -3.5,-4.77 -8.86,-7.3 -14.37,-7.3 m 5477.11,-0.15 c -5.5,0 -10.8,2.53 -14.3,7.22 -5.9,7.97 -4.2,19.13 3.8,24.94 21.4,15.78 42.9,31.94 63.9,47.87 7.8,5.96 19,4.47 25,-3.35 5.9,-7.82 4.4,-18.98 -3.4,-24.94 -21.1,-16.08 -42.8,-32.31 -64.5,-48.24 -3.2,-2.38 -6.8,-3.5 -10.5,-3.5 m -130.8,-92.76 c -5.6,0 -11.2,2.68 -14.7,7.74 -5.5,8.12 -3.4,19.21 4.7,24.79 21.7,14.82 43.7,30.15 65.5,45.64 8,5.66 19.1,3.8 24.8,-4.24 5.7,-8.05 3.9,-19.14 -4.2,-24.87 -21.9,-15.56 -44.1,-30.97 -66,-45.94 -3.1,-2.08 -6.6,-3.12 -10.1,-3.12 m -5215.21,-0.08 c -3.42,0 -6.92,0.97 -9.97,3.13 -22.04,15.04 -44.37,30.53 -66.26,46.08 -7.97,5.74 -9.9,16.83 -4.17,24.87 5.66,7.97 16.75,9.9 24.79,4.17 21.74,-15.41 43.85,-30.82 65.74,-45.71 8.11,-5.58 10.2,-16.68 4.61,-24.79 -3.42,-5.07 -9,-7.75 -14.74,-7.75 m 5081.41,-88.07 c -5.9,0 -11.7,2.91 -15.1,8.27 -5.2,8.26 -2.8,19.28 5.6,24.56 22.4,14.22 44.9,28.82 67,43.33 8.2,5.44 19.2,3.13 24.6,-5.06 5.4,-8.19 3.2,-19.28 -5.1,-24.71 -22.1,-14.6 -44.8,-29.26 -67.5,-43.63 -3,-1.86 -6.2,-2.76 -9.5,-2.76 m -4947.1,-0.37 c -3.21,0 -6.56,0.89 -9.46,2.76 -22.63,14.37 -45.49,29.11 -67.82,43.84 -8.19,5.36 -10.5,16.46 -5.06,24.65 5.36,8.19 16.45,10.49 24.64,5.06 22.18,-14.59 44.82,-29.18 67.3,-43.4 8.26,-5.29 10.72,-16.31 5.51,-24.65 -3.43,-5.28 -9.16,-8.26 -15.11,-8.26 m 4810.3,-83.08 c -6.1,0 -12.1,3.12 -15.4,8.78 -5,8.49 -2.1,19.43 6.3,24.42 22.9,13.4 46,27.18 68.5,40.95 8.5,5.13 19.4,2.45 24.5,-5.96 5.2,-8.41 2.5,-19.35 -5.9,-24.49 -22.7,-13.85 -46,-27.77 -69,-41.24 -2.9,-1.64 -5.9,-2.46 -9,-2.46 m -4672.95,-0.67 c -3.05,0 -6.18,0.82 -9.01,2.46 -23.15,13.62 -46.45,27.54 -69.31,41.46 -8.34,5.14 -11.02,16.08 -5.88,24.49 5.14,8.34 16.08,11.02 24.42,5.89 22.63,-13.78 45.78,-27.62 68.79,-41.1 8.49,-4.99 11.31,-15.85 6.4,-24.34 -3.35,-5.66 -9.31,-8.86 -15.41,-8.86 m 4533.35,-77.95 c -6.3,0 -12.4,3.35 -15.7,9.31 -4.6,8.71 -1.4,19.5 7.3,24.19 23,12.44 46.6,25.46 69.8,38.49 8.5,4.84 19.4,1.86 24.3,-6.77 4.8,-8.56 1.7,-19.43 -6.8,-24.2 -23.5,-13.25 -47.1,-26.28 -70.4,-38.86 -2.7,-1.49 -5.6,-2.16 -8.5,-2.16 m -4393.17,-0.97 c -2.82,0 -5.73,0.75 -8.41,2.16 -23.52,12.73 -47.27,25.84 -70.72,39.01 -8.56,4.84 -11.62,15.71 -6.78,24.27 4.77,8.56 15.64,11.62 24.2,6.78 23.3,-13.11 46.9,-26.13 70.2,-38.71 8.64,-4.69 11.91,-15.49 7.22,-24.13 -3.2,-5.95 -9.38,-9.38 -15.71,-9.38 m 4251.07,-72.73 c -6.5,0 -12.9,3.57 -16,9.9 -4.3,8.79 -0.7,19.51 8.1,23.82 23.7,11.84 47.7,23.98 71.1,36.11 8.7,4.54 19.5,1.12 24,-7.59 4.5,-8.71 1.1,-19.51 -7.6,-24.05 -23.6,-12.21 -47.7,-24.42 -71.7,-36.33 -2.5,-1.26 -5.2,-1.86 -7.9,-1.86 m -4108.13,-1.26 c -2.68,0 -5.36,0.59 -7.89,1.86 -24.19,11.98 -48.46,24.26 -72.06,36.55 -8.79,4.54 -12.14,15.26 -7.67,23.97 4.54,8.79 15.26,12.14 24.05,7.67 23.45,-12.14 47.49,-24.34 71.47,-36.26 8.78,-4.39 12.43,-15.04 8.03,-23.9 -3.12,-6.25 -9.37,-9.89 -15.93,-9.89 m 3963.53,-67.45 c -6.7,0 -13.2,3.87 -16.2,10.42 -4,9 -0.1,19.58 8.9,23.6 23.9,10.87 48.3,22.18 72.3,33.57 8.8,4.25 19.5,0.45 23.7,-8.41 4.2,-8.86 0.5,-19.51 -8.5,-23.75 -24.1,-11.46 -48.7,-22.85 -72.8,-33.8 -2.4,-1.11 -4.9,-1.63 -7.4,-1.63 m -3818.13,-1.57 c -2.46,0 -4.91,0.52 -7.3,1.64 -24.34,11.02 -48.98,22.48 -73.33,33.95 -8.86,4.24 -12.65,14.89 -8.48,23.74 4.24,8.87 14.89,12.66 23.74,8.49 24.12,-11.46 48.62,-22.78 72.74,-33.72 9.01,-4.1 12.95,-14.67 8.93,-23.6 -2.98,-6.55 -9.45,-10.5 -16.3,-10.5 m 3671.33,-62.01 c -7,0 -13.6,4.09 -16.4,11.01 -3.7,9.09 0.6,19.51 9.7,23.23 24.5,10.2 49.2,20.62 73.3,31.05 9.1,3.87 19.6,-0.23 23.4,-9.24 4,-9.08 -0.2,-19.5 -9.2,-23.45 -24.3,-10.49 -49.2,-21.07 -73.9,-31.26 -2.2,-0.9 -4.6,-1.34 -6.9,-1.34 m -3523.48,-1.87 c -2.23,0 -4.54,0.45 -6.77,1.34 -24.87,10.28 -49.88,20.85 -74.45,31.42 -9.01,3.95 -13.18,14.37 -9.31,23.45 3.87,9.01 14.37,13.18 23.45,9.24 24.35,-10.5 49.21,-21 73.86,-31.12 9.15,-3.8 13.47,-14.15 9.75,-23.31 -2.83,-6.85 -9.53,-11.02 -16.53,-11.02 m 3373.98,-56.8 c -7.2,0 -14,4.39 -16.6,11.54 -3.5,9.23 1.2,19.51 10.5,22.93 24.8,9.23 49.8,18.84 74.6,28.59 9.2,3.65 19.5,-0.89 23.1,-10.05 3.7,-9.16 -0.9,-19.51 -10,-23.08 -25,-9.83 -50.4,-19.5 -75.3,-28.81 -2.1,-0.74 -4.2,-1.12 -6.3,-1.12 m -3223.9,-1.86 c -2.1,0 -4.2,0.3 -6.2,1.12 -25.2,9.3 -50.67,19.06 -75.61,28.81 -9.16,3.57 -13.62,13.92 -10.05,23.08 3.57,9.16 13.92,13.62 23.08,10.05 24.68,-9.68 49.98,-19.29 74.98,-28.59 9.2,-3.42 13.9,-13.62 10.5,-22.86 -2.7,-7.22 -9.5,-11.61 -16.7,-11.61 m 3072.5,-51.59 c -7.4,0 -14.3,4.76 -16.9,12.21 -3.1,9.3 2,19.43 11.3,22.56 25.2,8.33 50.7,17.12 75.7,25.9 9.3,3.28 19.4,-1.56 22.7,-10.87 3.3,-9.3 -1.7,-19.43 -10.9,-22.7 -25.2,-8.86 -50.8,-17.72 -76.2,-26.13 -1.9,-0.67 -3.8,-0.97 -5.7,-0.97 m -2920.5,-1.86 c -1.8,0 -3.7,0.3 -5.6,0.97 -25.5,8.41 -51.2,17.19 -76.5,26.13 -9.3,3.2 -14.2,13.4 -10.9,22.7 3.2,9.23 13.4,14.15 22.7,10.87 25.1,-8.78 50.6,-17.49 76,-25.91 9.3,-3.12 14.4,-13.17 11.2,-22.55 -2.4,-7.45 -9.4,-12.21 -16.9,-12.21 m 2767.3,-46.16 c -7.7,0 -14.8,4.99 -17,12.73 -2.9,9.46 2.6,19.36 11.9,22.11 25.6,7.52 51.3,15.34 76.6,23.3 9.4,2.98 19.3,-2.23 22.3,-11.68 3,-9.38 -2.2,-19.36 -11.7,-22.26 -25.4,-8.04 -51.3,-15.93 -77,-23.53 -1.7,-0.44 -3.5,-0.67 -5.1,-0.67 m -2613.7,-1.79 c -1.6,0 -3.3,0.23 -5,0.75 -25.6,7.52 -51.5,15.33 -77.1,23.3 -9.4,2.98 -14.7,12.96 -11.7,22.33 2.9,9.39 12.9,14.67 22.3,11.69 25.4,-7.89 51.2,-15.71 76.6,-23.15 9.4,-2.75 14.8,-12.66 12,-22.11 -2.3,-7.82 -9.3,-12.81 -17.1,-12.81 m 2458.9,-40.94 c -7.9,0 -15.2,5.36 -17.2,13.4 -2.5,9.53 3.2,19.21 12.8,21.66 25.7,6.63 51.7,13.55 77.2,20.62 9.5,2.61 19.3,-2.97 21.9,-12.43 2.7,-9.53 -2.9,-19.28 -12.4,-21.96 -25.7,-7.07 -51.9,-14.07 -77.9,-20.7 -1.5,-0.37 -3,-0.59 -4.4,-0.59 m -2304,-1.49 c -1.5,0 -2.9,0.15 -4.4,0.52 -26.1,6.7 -52.3,13.62 -77.9,20.62 -9.5,2.61 -15.1,12.43 -12.5,21.89 2.6,9.53 12.4,15.11 21.9,12.51 25.4,-7 51.4,-13.85 77.3,-20.48 9.6,-2.45 15.3,-12.13 12.8,-21.66 -2,-8.12 -9.3,-13.4 -17.2,-13.4 m 2147.8,-35.74 c -8.2,0 -15.5,5.66 -17.4,14 -2.1,9.61 4,19.06 13.6,21.22 25.8,5.66 52,11.68 77.9,17.86 9.6,2.31 19.2,-3.64 21.5,-13.17 2.3,-9.6 -3.6,-19.21 -13.2,-21.44 -26.1,-6.26 -52.6,-12.36 -78.6,-18.02 -1.2,-0.3 -2.6,-0.45 -3.8,-0.45 m -1991.6,-1.33 c -1.2,0 -2.5,0.14 -3.8,0.36 -26.2,5.81 -52.8,11.84 -78.6,17.95 -9.5,2.31 -15.5,11.83 -13.2,21.44 2.3,9.6 11.9,15.48 21.5,13.25 25.6,-6.11 51.9,-12.06 77.9,-17.79 9.6,-2.09 15.7,-11.62 13.6,-21.22 -1.7,-8.34 -9.1,-13.99 -17.4,-13.99 m 1834.2,-30.46 c -8.4,0 -15.9,6.04 -17.5,14.6 -1.8,9.68 4.6,18.98 14.3,20.77 26,4.76 52.4,9.82 78.5,15.11 9.6,1.94 19.1,-4.32 21,-13.92 2,-9.68 -4.3,-19.06 -14,-20.99 -26.3,-5.29 -52.9,-10.43 -79,-15.27 -1.2,-0.15 -2.3,-0.3 -3.3,-0.3 m -1676.7,-1.11 c -1.1,0 -2.1,0.07 -3.2,0.29 -26.5,4.85 -53.2,9.91 -79.2,15.12 -9.6,1.93 -15.9,11.32 -14,20.99 2,9.68 11.4,15.86 21,14 25.9,-5.21 52.3,-10.27 78.6,-15.04 9.7,-1.79 16.1,-11.09 14.3,-20.77 -1.6,-8.56 -9,-14.59 -17.5,-14.59 m 1518.3,-25.17 c -8.7,0 -16.3,6.41 -17.6,15.19 -1.5,9.75 5.3,18.84 15,20.25 26.2,3.87 52.7,8.04 79,12.43 9.7,1.57 18.9,-4.98 20.5,-14.66 1.6,-9.75 -5,-18.91 -14.7,-20.47 -26.5,-4.4 -53.3,-8.64 -79.6,-12.51 -0.9,-0.15 -1.7,-0.23 -2.6,-0.23 m -1359.8,-0.89 c -0.9,0 -1.7,0.08 -2.6,0.23 -26.5,3.87 -53.3,8.04 -79.7,12.35 -9.7,1.57 -16.3,10.72 -14.6,20.48 1.5,9.68 10.7,16.23 20.4,14.66 26.2,-4.32 52.7,-8.41 79,-12.28 9.8,-1.42 16.5,-10.5 15.1,-20.18 -1.3,-8.85 -8.9,-15.26 -17.6,-15.26 m 1200.5,-19.8 c -8.9,0 -16.6,6.7 -17.6,15.78 -1.1,9.76 5.9,18.61 15.7,19.73 26.4,2.98 53.1,6.18 79.3,9.6 9.8,1.34 18.7,-5.58 20,-15.33 1.3,-9.75 -5.6,-18.69 -15.3,-19.95 -26.5,-3.5 -53.4,-6.78 -80.1,-9.76 -0.6,-0.07 -1.3,-0.07 -2,-0.07 m -1041.3,-0.74 -2,0.14 c -26.9,2.98 -53.8,6.26 -80,9.61 -9.8,1.26 -16.6,10.2 -15.4,19.95 1.3,9.75 10.2,16.67 20,15.41 26,-3.42 52.6,-6.63 79.4,-9.6 9.8,-1.05 16.8,-9.83 15.7,-19.66 -1,-9.08 -8.7,-15.85 -17.7,-15.85 m 881.5,-14.52 c -9.3,0 -17,7.07 -17.7,16.45 -0.8,9.83 6.5,18.39 16.3,19.13 26.7,2.09 53.5,4.4 79.7,6.93 9.8,0.96 18.5,-6.26 19.4,-16.08 0.9,-9.76 -6.2,-18.47 -16,-19.43 -26.4,-2.46 -53.4,-4.84 -80.3,-6.93 l -1.4,-0.07 m -721.6,-0.45 -1.4,0.08 c -26.7,2.01 -53.7,4.31 -80.3,6.77 -9.8,0.97 -17,9.6 -16.1,19.43 1,9.83 9.5,17.05 19.4,16.08 26.4,-2.45 53.3,-4.76 79.7,-6.77 9.8,-0.82 17.2,-9.38 16.5,-19.14 -0.8,-9.38 -8.6,-16.45 -17.8,-16.45 m 561.3,-9.23 c -9.5,0 -17.4,7.45 -17.8,17.05 -0.4,9.82 7.2,18.09 17,18.54 26.6,1.19 53.5,2.53 79.9,4.16 9.9,0.45 18.3,-6.92 18.9,-16.75 0.6,-9.75 -6.9,-18.24 -16.7,-18.83 -26.7,-1.56 -53.8,-2.98 -80.5,-4.17 h -0.8 m -401.1,-0.3 -0.7,0.08 c -26.9,1.11 -54,2.45 -80.5,4.02 -9.8,0.59 -17.2,9 -16.7,18.83 0.6,9.83 8.9,17.2 18.8,16.75 26.3,-1.56 53.2,-2.9 79.9,-4.02 9.8,-0.44 17.5,-8.71 17,-18.54 -0.3,-9.6 -8.2,-17.12 -17.8,-17.12 m 240.9,-3.95 c -9.8,0 -17.7,7.9 -17.8,17.65 -0.1,9.9 7.8,17.94 17.6,18.02 26.6,0.22 53.5,0.74 79.9,1.41 9.9,0.6 18,-7.52 18.3,-17.35 0.3,-9.82 -7.5,-18.01 -17.3,-18.24 -26.7,-0.74 -53.8,-1.19 -80.6,-1.49 h -0.1 m -80.3,0 h -0.1 c -27,0.23 -54.1,0.68 -80.6,1.27 -9.9,0.3 -17.6,8.41 -17.4,18.31 0.2,9.83 8.6,17.58 18.2,17.35 26.4,-0.67 53.3,-1.12 80,-1.34 9.8,-0.07 17.8,-8.11 17.7,-17.94 -0.1,-9.75 -8,-17.65 -17.8,-17.65" /></g><path
         id="path60"
         style="fill:#2b478b;fill-opacity:1;fill-rule:nonzero;stroke:none"
         d="m 12565.9,14662.2 c 0,154.4 125.2,279.6 279.6,279.6 154.4,0 279.6,-125.2 279.6,-279.6 0,-154.4 -125.2,-279.6 -279.6,-279.6 -154.4,0 -279.6,125.2 -279.6,279.6" /><g
         transform="scale(1.27178)"
         id="g62"><path
           id="path64"
           style="fill:#172a49;fill-opacity:1;fill-rule:nonzero;stroke:none"
           d="m 12310.9,11006.7 c -517.3,0 -1018.9,-101.2 -1491.2,-301 -456.2,-192.9 -865.93,-469.2 -1217.72,-821.02 -351.87,-351.86 -628.09,-761.56 -821.05,-1217.75 -199.8,-472.24 -301.08,-973.93 -301.08,-1491.16 0,-517.22 101.28,-1018.88 301.08,-1491.13 192.96,-456.22 469.18,-865.96 821.05,-1217.75 351.79,-351.87 761.52,-628.09 1217.72,-821.05 472.3,-199.8 973.9,-301.08 1491.2,-301.08 517.2,0 1018.9,101.28 1491.1,301.08 456.2,192.96 865.9,469.18 1217.7,821.05 351.9,351.79 628.1,761.53 821.1,1217.75 199.7,472.25 301,973.91 301,1491.13 0,517.23 -101.3,1018.92 -301,1491.16 -193,456.19 -469.2,865.89 -821.1,1217.75 -351.8,351.82 -761.5,628.12 -1217.7,821.02 -472.2,199.8 -973.9,301 -1491.1,301 z m 0,-7820.06 c -538.5,0 -1061,105.44 -1552.8,313.5 -475,200.89 -901.67,488.52 -1268.01,854.86 -366.34,366.34 -653.96,792.99 -854.86,1267.99 -208.06,491.83 -313.5,1014.33 -313.5,1552.78 0,538.46 105.44,1060.93 313.5,1552.78 200.9,475.03 488.52,901.64 854.86,1267.96 366.34,366.39 793.01,653.99 1268.01,854.89 491.8,208 1014.3,313.5 1552.8,313.5 538.4,0 1060.9,-105.5 1552.7,-313.5 475.1,-200.9 901.7,-488.5 1268,-854.89 366.4,-366.32 653.9,-792.93 854.9,-1267.96 208,-491.85 313.5,-1014.32 313.5,-1552.78 0,-538.45 -105.5,-1060.95 -313.5,-1552.78 -201,-475 -488.5,-901.65 -854.9,-1267.99 -366.3,-366.34 -792.9,-653.97 -1268,-854.86 -491.8,-208.06 -1014.3,-313.5 -1552.7,-313.5" /></g><path
         id="path66"
         style="fill:#172a49;fill-opacity:1;fill-rule:nonzero;stroke:none"
         d="m 16286.8,14061.4 h -1324.1 v 445 h 1324.1 v -445" /><path
         id="path68"
         style="fill:#172a49;fill-opacity:1;fill-rule:nonzero;stroke:none"
         d="m 15731.2,14422.2 h -213 v 504.8 h 213 v -504.8" /><path
         id="path70"
         style="fill:#172a49;fill-opacity:1;fill-rule:nonzero;stroke:none"
         d="m 15624.7,15453.6 c -129.4,0 -234.7,-105.3 -234.7,-234.7 0,-129.4 105.3,-234.7 234.7,-234.7 129.4,0 234.7,105.3 234.7,234.7 0,129.4 -105.3,234.7 -234.7,234.7 z m 0,-646.9 c -227.2,0 -412.1,184.9 -412.1,412.2 0,227.3 184.9,412.2 412.1,412.2 227.3,0 412.2,-184.9 412.2,-412.2 0,-227.3 -184.9,-412.2 -412.2,-412.2" /><g
         transform="scale(1.10972)"
         id="g72"><path
           id="path74"
           style="fill:#f99746;fill-opacity:1;fill-rule:nonzero;stroke:none"
           d="m 16300,8179.24 c 0,-129.85 -11.7,-257 -34.2,-380.45 -53.8,-296.2 -169.5,-570.87 -333.3,-810.2 -380.3,-556.27 -1019.7,-921.32 -1744.5,-921.32 -862,0 -1603.4,516.44 -1931.6,1256.89 -43.3,97.6 -79.4,199.06 -107.6,303.78 -47.5,175.71 -72.7,360.62 -72.7,551.3 0,154.18 16.5,304.67 47.9,449.39 0.3,1.72 0.7,3.25 1,4.96 87.8,400.33 289.1,758 568.5,1037.8 79.2,79.43 164.7,152.55 255.8,218.6 43.5,31.51 88.3,61.42 134,89.55 321.4,197.76 699.7,311.76 1104.7,311.76 53.8,0 107,-2 159.7,-6 74.4,-5.5 147.6,-14.9 219.5,-28 303,-54.8 583.3,-174.4 826.5,-343.82 h 0.1 c 151.5,-105.46 288.5,-230.19 407.4,-370.83 62.5,-73.84 120,-152.02 171.9,-234.08 32.3,-51.09 62.6,-103.56 90.6,-157.5 67.3,-129.58 121.5,-267.06 161,-410.61 49.1,-178.69 75.3,-366.94 75.3,-561.22" /></g><path
         id="path76"
         style="fill:#ed7f35;fill-opacity:1;fill-rule:nonzero;stroke:none"
         d="m 14948.6,10125.8 c -93.5,-148.1 39,-405.3 -241.6,-335.2 -280.5,70.2 -452,101.4 -467.6,-54.4 -15.7,-156 210.4,-156 210.4,-319.7 0,-163.6 -101.3,-217.8 -257.1,-140 -156,77.7 -200.8,190.8 -382,120.6 -181.2,-70.1 -286.4,-23.4 -327.3,116.9 -7.3,24.7 -17.3,44.7 -29.1,61.4 0.3,1.9 0.8,3.6 1.1,5.5 97.4,444.3 320.8,841.2 630.9,1151.7 87.9,88.1 182.8,169.3 283.9,242.6 48.2,34.9 97.9,68.1 148.7,99.3 73.1,-2.7 160.4,-30.4 234.9,-122.5 163.7,-202.7 272.8,-101.3 233.8,-335.2 -39,-233.8 23.4,-265 155.9,-257.2 132.4,7.9 288.4,7.9 303.9,-93.5 15.6,-101.3 -405.3,7.8 -498.8,-140.3" /><g
         transform="scale(1.0132)"
         id="g78"><path
           id="path80"
           style="fill:#ed7f35;fill-opacity:1;fill-rule:nonzero;stroke:none"
           d="m 16032.8,8751.86 c 0,0 -160.9,-51.62 -203.5,60.79 -42.4,112.32 6.1,136.6 -136.6,169.96 -142.7,33.46 -154.8,130.57 -245.8,118.43 -91.1,-12.13 -45.6,-48.55 -151.8,-127.51 -106.3,-78.96 -203.5,-42.54 -200.5,-188.22 3.1,-145.77 161,-168.47 192.9,-264.11 31.8,-95.64 -22.8,-136.7 45.5,-209.53 68.3,-72.84 195.8,-40.96 136.6,-141.14 -59.3,-100.28 -150.3,-177.66 -104.8,-332.51 45.5,-154.85 13.7,-163.93 91.1,-273.19 77.4,-109.36 227.7,-145.78 250.5,-72.94 22.7,72.94 -104.8,168.57 -63.7,241.41 40.9,72.84 109.2,22.8 136.6,132.06 27.3,109.35 138.2,109.35 147.2,185.25 9.1,75.9 -133.6,191.28 -78.9,239.84 54.7,48.56 163.9,-88.04 249,33.35 85,121.5 27.2,218.62 115.3,334 88.1,115.37 -118.4,160.87 -179.1,94.06" /></g><g
         transform="scale(1.10972)"
         id="g82"><path
           id="path84"
           style="fill:#ed7f35;fill-opacity:1;fill-rule:nonzero;stroke:none"
           d="m 16300,8179.24 c 0,-129.85 -11.7,-257 -34.2,-380.45 -53.8,-296.2 -169.5,-570.87 -333.3,-810.2 -55.8,-18.39 -112.8,-17.94 -168.8,4.5 -263.4,105.34 -68.5,389.83 36.8,532.03 105.4,142.19 -163.3,79.02 -358.1,210.68 -194.9,131.65 21,484.63 -179.1,426.68 -200.2,-57.94 -442.5,-131.65 -558.4,63.17 -115.9,194.91 105.4,226.54 5.2,389.83 -100,163.28 58,258.08 258.2,273.94 200.2,15.77 173.8,157.98 421.4,179.06 247.5,21.06 242.3,-294.95 516.2,-273.95 273.9,21.08 261.5,-42.08 261.5,-42.08 19.8,0.54 39,-3.61 57.3,-11.99 49.1,-178.69 75.3,-366.94 75.3,-561.22" /></g><g
         transform="scale(1.09364)"
         id="g86"><path
           id="path88"
           style="fill:#ed7f35;fill-opacity:1;fill-rule:nonzero;stroke:none"
           d="m 16300,9285.67 c -231.2,-112.46 -323.9,193.38 -521.5,101.44 -199.1,-92.67 -164.3,85.52 -321,199.58 -156.8,113.96 -470.4,-92.67 -456.1,85.52 14.2,178.11 249.4,128.28 299.3,270.78 49.9,142.51 277.9,106.91 277.9,106.91 12.9,4.9 26.8,8.1 41.6,9.4 h 0.1 c 153.7,-107.01 292.6,-233.58 413.3,-376.29 63.4,-74.93 121.7,-154.25 174.4,-237.53 32.8,-51.84 63.6,-105.08 92,-159.81" /></g><path
         id="path90"
         style="fill:#ed7f35;fill-opacity:1;fill-rule:nonzero;stroke:none"
         d="m 15696.8,10827.3 c 0,0 132.5,191.1 -77.9,247.6 -210.5,56.4 -206.6,-17.5 -370.2,0 -163.7,17.4 -228,-109.3 -105.3,-247.6 122.8,-138.4 222.2,-403.8 333.2,-262.3 111.1,141.5 89.7,248.6 220.2,262.3" /><path
         id="path92"
         style="fill:#172a49;fill-opacity:1;fill-rule:nonzero;stroke:none"
         d="m 15667.3,8954.1 -34.4,-0.6 c -59.9,-1 -108.8,45 -108.5,102 l 16,3003.4 c 0.2,33.6 28.5,60.9 63.8,61.5 35.5,0.6 64.8,-26 65.9,-59.8 l 96.3,-3007.5 c 1.7,-53.5 -42.9,-98.1 -99.1,-99" /><g
         transform="scale(1.07531)"
         id="g94"><path
           id="path96"
           style="fill:#233862;fill-opacity:1;fill-rule:nonzero;stroke:none"
           d="m 14556.5,8326.69 -3.4,2.33 c -6,4.09 14.9,45.2 46.4,91.04 l 1657.3,2418.44 c 18.5,27.1 36.1,46.8 39.7,44.4 3.5,-2.4 -8.5,-26.2 -27.1,-53.5 L 14620,8398.49 c -29.4,-43.25 -57.9,-75.61 -63.5,-71.8" /></g><g
         transform="scale(1.17055)"
         id="g98"><path
           id="path100"
           style="fill:#172a49;fill-opacity:1;fill-rule:nonzero;stroke:none"
           d="m 13208.8,7724.56 10.4,27.51 c 18.1,47.84 78.1,69.2 133.1,47.33 l 2897.9,-1153.22 c 32.4,-12.9 49.8,-45.79 39.2,-73.98 v 0 c -10.7,-28.36 -45.8,-41.52 -78.8,-29.56 l -2937.5,1065.74 c -52.3,18.96 -81.2,71.24 -64.3,116.18" /></g><path
         id="path102"
         style="fill:#2b478b;fill-opacity:1;fill-rule:nonzero;stroke:none"
         d="m 15120.6,9068.1 c -4.8,289.4 226,527.9 515.4,532.7 289.4,4.8 528,-226 532.7,-515.4 4.8,-289.5 -226,-528 -515.4,-532.7 -289.5,-4.8 -528,226 -532.7,515.4" /><g
         transform="scale(1.552)"
         id="g104"><path
           id="path106"
           style="fill:#ffffff;fill-opacity:1;fill-rule:nonzero;stroke:none"
           d="m 14432.1,5304.51 c 0,0 93.4,178.61 316.7,158.76 0,0 324.3,297.62 670,39.69 0,0 367.5,63.92 639.8,-55.34 181.5,-79.51 241.4,-162.95 241.4,-162.95 l -1867.9,19.84" /></g><g
         transform="scale(1.14088)"
         id="g108"><path
           id="path110"
           style="fill:#ffffff;fill-opacity:1;fill-rule:nonzero;stroke:none"
           d="m 14131.1,15044.7 c 0,0 108.5,251.4 367.7,223.4 0,0 376.6,419 778,55.9 0,0 426.8,90 742.9,-77.9 210.7,-111.9 280.3,-229.4 280.3,-229.4 l -2168.9,28" /></g><path
         id="path112"
         style="fill:#d5e1fa;fill-opacity:1;fill-rule:nonzero;stroke:none"
         d="m 10233.5,5600.4 -5522.41,53.1 c 0,0 247.89,429.7 835.34,429.7 32.67,0 66.29,-1.4 101.07,-4.2 0,0 466.67,388.4 1095.89,388.4 272.72,0 575.88,-72.9 884.98,-282 0,0 290.86,45.9 683.02,45.9 365.88,0 819.93,-39.9 1208.35,-194.2 536.56,-213.2 713.76,-436.7 713.76,-436.7" /><path
         id="path114"
         style="fill:#b9cdf8;fill-opacity:1;fill-rule:nonzero;stroke:none"
         d="m 10326.5,8154.2 -786,8.1 c -3.58,9 -12.35,15.1 -22.22,15.1 -1.23,0 -2.47,-0.1 -3.73,-0.3 -8.48,-1.4 -15.21,-7 -18.33,-14.3 l -2267.34,23.3 c 0,0 139.03,257.4 468.55,257.4 18.32,0 37.19,-0.8 56.7,-2.5 0,0 261.76,232.7 614.71,232.7 152.97,0 323.02,-43.7 496.39,-168.9 0,0 163.15,27.4 383.12,27.4 62.54,0 129.68,-2.2 198.98,-7.9 1.68,-17.5 3.43,-35.1 5.25,-52.5 1.28,-12.3 11.66,-21.5 23.77,-21.5 l 2.5,0.2 c 13.14,1.3 22.69,13.1 21.32,26.2 -1.49,14.3 -2.94,28.7 -4.34,43.1 143.79,-15.2 294.24,-46.2 430.32,-103.9 300.95,-127.7 400.35,-261.7 400.35,-261.7 M 9488.47,8391 c -0.95,0 -1.92,-0.1 -2.89,-0.2 -13.12,-1.6 -22.45,-13.5 -20.86,-26.6 4.36,-35.8 9.09,-71.9 14.02,-107.4 1.68,-11.9 11.92,-20.6 23.67,-20.6 1.1,0 2.21,0.1 3.33,0.2 13.09,1.9 22.22,14 20.4,27 -4.91,35.2 -9.58,71 -13.92,106.6 -1.48,12.1 -11.84,21 -23.75,21" /><path
         id="path116"
         style="fill:#95a3c5;fill-opacity:1;fill-rule:nonzero;stroke:none"
         d="m 9540.5,8162.3 -44.28,0.5 c 3.12,7.3 9.85,12.9 18.33,14.3 1.26,0.2 2.5,0.3 3.73,0.3 9.87,0 18.64,-6.1 22.22,-15.1 m -38.09,73.9 c -11.75,0 -21.99,8.7 -23.67,20.6 -4.93,35.5 -9.66,71.6 -14.02,107.4 -1.59,13.1 7.74,25 20.86,26.6 0.97,0.1 1.94,0.2 2.89,0.2 11.91,0 22.27,-8.9 23.75,-21 4.34,-35.6 9.01,-71.4 13.92,-106.6 1.82,-13 -7.31,-25.1 -20.4,-27 -1.12,-0.1 -2.23,-0.2 -3.33,-0.2 m -26.06,214.1 c -12.11,0 -22.49,9.2 -23.77,21.5 -1.82,17.4 -3.57,35 -5.25,52.5 16.07,-1.3 32.23,-2.8 48.5,-4.5 1.4,-14.4 2.85,-28.8 4.34,-43.1 1.37,-13.1 -8.18,-24.9 -21.32,-26.2 l -2.5,-0.2" /><path
         id="path118"
         style="fill:#b9cdf8;fill-opacity:1;fill-rule:nonzero;stroke:none"
         d="m 6077.78,7007.4 -3097.63,31.9 c 0,0 139.04,257.4 468.55,257.4 18.32,0 37.19,-0.8 56.69,-2.5 0,0 261.76,232.7 614.7,232.7 152.98,0 323.03,-43.7 496.41,-168.9 0,0 163.15,27.4 383.12,27.4 205.23,0 459.92,-23.9 677.79,-116.3 300.96,-127.7 400.37,-261.7 400.37,-261.7" /><path
         id="path120"
         style="fill:#b9cdf8;fill-opacity:1;fill-rule:nonzero;stroke:none"
         d="m 8777.7,9810.6 -2035.66,24 c 0,0 91.38,194.3 307.93,194.3 12.04,0 24.43,-0.6 37.25,-1.9 0,0 172.02,175.7 403.96,175.7 100.53,0 212.28,-33 326.22,-127.5 0,0 107.21,20.7 251.77,20.7 134.87,0 302.24,-18.1 445.42,-87.8 197.77,-96.4 263.11,-197.5 263.11,-197.5" /><path
         id="path122"
         style="fill:#f5fbff;fill-opacity:1;fill-rule:nonzero;stroke:none"
         d="m 8110.64,7232.5 c -105.4,-99.3 -230.63,-180.9 -372.88,-238.7 -617.26,-250.4 -1320.69,46.9 -1571.16,664.2 -250.47,617.2 46.87,1320.7 664.13,1571.1 142.11,57.7 288.7,86.3 433.49,88.6 -536.69,-253.7 -787.77,-885.4 -561.81,-1442.3 225.97,-556.9 846.44,-835.1 1408.23,-642.9" /><g
         transform="scale(1.5606)"
         id="g124"><path
           id="path126"
           style="fill:#a8d29f;fill-opacity:1;fill-rule:nonzero;stroke:none"
           d="m 15991.5,2013.97 c 64.2,-26.02 293.6,-4.94 301.1,13.39 7.4,18.33 -142.7,193.13 -206.9,219.15 -64.2,26.01 -137.4,-4.94 -163.4,-69.14 -26,-64.21 5,-137.39 69.2,-163.4" /></g><g
         transform="scale(1.61044)"
         id="g128"><path
           id="path130"
           style="fill:#a8d29f;fill-opacity:1;fill-rule:nonzero;stroke:none"
           d="m 16057.4,1845.52 c -34.9,-57.31 -50.7,-280.05 -34.3,-289.98 16.4,-10 207,106.18 241.9,163.49 35,57.31 16.8,132.14 -40.5,167.1 -57.3,34.9 -132.1,16.76 -167.1,-40.61" /></g><g
         transform="scale(1.58609)"
         id="g132"><path
           id="path134"
           style="fill:#a8d29f;fill-opacity:1;fill-rule:nonzero;stroke:none"
           d="m 15999.7,1431.38 c 64.9,-20.74 288.4,17.09 294.4,35.62 5.9,18.54 -154.4,178.81 -219.4,199.55 -64.9,20.74 -134.3,-15.13 -155.1,-80.07 -20.7,-64.94 15.2,-134.42 80.1,-155.1" /></g><g
         transform="scale(1.58971)"
         id="g136"><path
           id="path138"
           style="fill:#a8d29f;fill-opacity:1;fill-rule:nonzero;stroke:none"
           d="m 16291.4,1209.72 c -0.3,5.16 -25.2,515.76 -304.8,779.39 l 6,6.35 c 282.2,-266.08 307.2,-780.2 307.4,-785.36 l -8.6,-0.38" /></g><g
         transform="scale(1.68475)"
         id="g140"><path
           id="path142"
           style="fill:#a8d29f;fill-opacity:1;fill-rule:nonzero;stroke:none"
           d="m 16252.8,1855.17 c -37,-24.58 -184,-40.78 -191,-30.16 -7.1,10.57 64.9,139.73 102,164.36 37,24.57 87,14.48 111.6,-22.55 24.6,-37.04 14.5,-87.02 -22.6,-111.65" /></g><g
         transform="scale(1.65094)"
         id="g144"><path
           id="path146"
           style="fill:#a8d29f;fill-opacity:1;fill-rule:nonzero;stroke:none"
           d="m 16228.6,1747.19 c 30.9,-33.26 71.4,-178.63 61.9,-187.47 -9.5,-8.78 -151.4,42.4 -182.3,75.65 -30.9,33.26 -29,85.23 4.3,116.12 33.2,30.89 85.3,28.95 116.1,-4.3" /></g><g
         transform="scale(1.67521)"
         id="g148"><path
           id="path150"
           style="fill:#a8d29f;fill-opacity:1;fill-rule:nonzero;stroke:none"
           d="m 16247,1477.24 c -39,-21.79 -187.7,-26.8 -193.9,-15.64 -6.3,11.17 75.8,135.21 114.9,157 39,21.85 88.3,7.94 110.2,-31.1 21.8,-39.04 7.8,-88.41 -31.2,-110.26" /></g><g
         transform="scale(1.66065)"
         id="g152"><path
           id="path154"
           style="fill:#a8d29f;fill-opacity:1;fill-rule:nonzero;stroke:none"
           d="m 16205.2,1304.85 c -0.5,3.37 -51.9,338.54 94.8,546.95 l -4.7,3.32 c -148.1,-210.34 -96.3,-547.8 -95.7,-551.17 l 5.6,0.9" /></g><g
         transform="scale(1.62399)"
         id="g156"><path
           id="path158"
           style="fill:#a8d29f;fill-opacity:1;fill-rule:nonzero;stroke:none"
           d="m 16300,1213.37 -17.4,2.77 c -68.6,887.26 -339.5,1524.02 -343.3,1532.7 l 15.8,6.83 c 3.8,-8.74 276.7,-649.69 344.9,-1542.3" /></g><g
         transform="scale(1.59081)"
         id="g160"><path
           id="path162"
           style="fill:#8c9df4;fill-opacity:1;fill-rule:nonzero;stroke:none"
           d="m 16084.1,2897.33 c 34.1,-38.66 193.8,-100.83 204.9,-91.09 11,9.75 -30.9,175.95 -64.9,214.61 -34.2,38.66 -93.1,42.31 -131.8,8.24 -38.7,-34.14 -42.3,-93.1 -8.2,-131.76" /></g><g
         transform="scale(1.61124)"
         id="g164"><path
           id="path166"
           style="fill:#8c9df4;fill-opacity:1;fill-rule:nonzero;stroke:none"
           d="m 16121.9,2993.6 c -30.5,-40.78 -58.1,-207.73 -46.5,-216.42 11.7,-8.69 163.8,65.48 194.2,106.31 30.4,40.78 22,98.5 -18.8,128.91 -40.8,30.41 -98.5,22.03 -128.9,-18.8" /></g><g
         transform="scale(1.61928)"
         id="g168"><path
           id="path170"
           style="fill:#8c9df4;fill-opacity:1;fill-rule:nonzero;stroke:none"
           d="m 16222.3,2802.12 c -48.8,13.28 -213.5,-21.87 -217.3,-35.82 -3.8,-13.96 120.3,-127.78 169.1,-141.12 48.9,-13.33 99.3,15.51 112.6,64.36 13.3,48.84 -15.5,99.24 -64.4,112.58" /></g><g
         transform="scale(1.60099)"
         id="g172"><path
           id="path174"
           style="fill:#8c9df4;fill-opacity:1;fill-rule:nonzero;stroke:none"
           d="m 16295.1,2611.38 c -5,50.97 -97.3,194.06 -111.8,192.69 -14.6,-1.44 -77.8,-159.59 -72.9,-210.56 5,-50.96 50.3,-88.32 101.3,-83.38 50.9,4.93 88.3,50.22 83.4,101.25" /></g><g
         transform="scale(1.58974)"
         id="g176"><path
           id="path178"
           style="fill:#8c9df4;fill-opacity:1;fill-rule:nonzero;stroke:none"
           d="m 16156,2640.87 c 45.6,23.97 144,164.49 137.1,177.51 -6.7,13.02 -178.3,11.83 -224,-12.14 -45.6,-23.96 -63.2,-80.45 -39.2,-126.12 24,-45.67 80.4,-63.22 126.1,-39.25" /></g><g
         transform="scale(1.5923)"
         id="g180"><path
           id="path182"
           style="fill:#f99746;fill-opacity:1;fill-rule:nonzero;stroke:none"
           d="m 16236.7,2818.69 c 2.6,16.77 18.4,28.13 35.1,25.5 16.8,-2.7 28.2,-18.4 25.5,-35.17 -2.6,-16.77 -18.4,-28.14 -35.2,-25.5 -16.7,2.7 -28.1,18.4 -25.4,35.17" /></g><g
         transform="scale(1.65049)"
         id="g184"><path
           id="path186"
           style="fill:#a8d29f;fill-opacity:1;fill-rule:nonzero;stroke:none"
           d="m 16033.5,2086.53 c -48.9,-60.1 -101.7,-312.33 -84.5,-326.27 17.1,-13.93 253.3,89.13 302.1,149.23 48.9,60.11 39.8,148.44 -20.3,197.34 -60.1,48.89 -148.5,39.8 -197.3,-20.3" /></g><g
         transform="scale(1.52553)"
         id="g188"><path
           id="path190"
           style="fill:#a8d29f;fill-opacity:1;fill-rule:nonzero;stroke:none"
           d="m 16300,1195.06 -12.6,0.33 c -131.4,620.37 -382.2,1044.81 -385.8,1050.58 l 10.6,6.29 c 3.5,-5.83 256.2,-433.03 387.8,-1057.2" /></g><g
         transform="scale(1.49)"
         id="g192"><path
           id="path194"
           style="fill:#f99746;fill-opacity:1;fill-rule:nonzero;stroke:none"
           d="m 16139.4,2346.51 c 27.8,-24.16 146.8,-53.22 153.7,-45.3 6.9,7.92 -38.3,121.74 -66.1,145.9 -27.8,24.23 -70,21.28 -94.1,-6.51 -24.2,-27.78 -21.3,-69.86 6.5,-94.09" /></g><g
         transform="scale(1.50231)"
         id="g196"><path
           id="path198"
           style="fill:#f99746;fill-opacity:1;fill-rule:nonzero;stroke:none"
           d="m 16166.7,2444.71 c -17.8,-31.89 -21.8,-153.3 -12.7,-158.43 9.1,-5.05 110.4,62.04 128.2,93.99 17.8,31.89 6.4,72.16 -25.5,90 -31.9,17.77 -72.3,6.32 -90,-25.56" /></g><g
         transform="scale(1.50913)"
         id="g200"><path
           id="path202"
           style="fill:#f99746;fill-opacity:1;fill-rule:nonzero;stroke:none"
           d="m 16238.6,2324.91 c -35.9,4.84 -149.9,-35.72 -151.3,-45.99 -1.4,-10.27 97.7,-79.65 133.7,-84.55 36.1,-4.9 69.2,20.41 74.1,56.46 4.9,36.04 -20.4,69.17 -56.5,74.08" /></g><g
         transform="scale(1.4988)"
         id="g204"><path
           id="path206"
           style="fill:#f99746;fill-opacity:1;fill-rule:nonzero;stroke:none"
           d="m 16291.7,2172.47 c -8.2,35.69 -87.1,128.5 -97.3,126.1 -10.2,-2.34 -40.1,-120.37 -31.8,-156.06 8.2,-35.63 43.9,-57.85 79.6,-49.58 35.6,8.28 57.8,43.84 49.5,79.54" /></g><g
         transform="scale(1.4894)"
         id="g208"><path
           id="path210"
           style="fill:#f99746;fill-opacity:1;fill-rule:nonzero;stroke:none"
           d="m 16213.4,2170.21 c 30.1,21.21 86.6,129.98 80.5,138.57 -6.1,8.53 -127.4,-8.32 -157.5,-29.6 -30.1,-21.29 -37.3,-62.91 -16,-92.99 21.2,-30.08 62.9,-37.27 93,-15.98" /></g><g
         transform="scale(1.49088)"
         id="g212"><path
           id="path214"
           style="fill:#2a4a7c;fill-opacity:1;fill-rule:nonzero;stroke:none"
           d="m 16255.8,2307.03 c 0.3,12.14 10.4,21.67 22.5,21.4 12.2,-0.34 21.7,-10.4 21.4,-22.54 -0.3,-12.14 -10.4,-21.66 -22.5,-21.39 -12.1,0.33 -21.7,10.46 -21.4,22.53" /></g><g
         transform="scale(1.53622)"
         id="g216"><path
           id="path218"
           style="fill:#a8d29f;fill-opacity:1;fill-rule:nonzero;stroke:none"
           d="m 16098.9,1822.65 c -29.1,-47.45 -43,-232.25 -29.5,-240.58 13.6,-8.34 172.2,87.42 201.4,134.87 29.2,47.45 14.4,109.62 -33.1,138.78 -47.5,29.23 -109.6,14.39 -138.8,-33.07" /></g><g
         transform="scale(1.69666)"
         id="g220"><path
           id="path222"
           style="fill:#a8d29f;fill-opacity:1;fill-rule:nonzero;stroke:none"
           d="m 14303.5,1016.06 c 0,0 62.6,169.39 289.7,180.06 227.2,10.61 383.6,-127.67 571.3,-63.83 187.6,63.83 498.2,207.94 792.1,111.92 293.8,-95.95 343.4,-228.15 343.4,-228.15 h -1996.5" /></g><g
         transform="scale(1.17244)"
         id="g224"><path
           id="path226"
           style="fill:#a8d29f;fill-opacity:1;fill-rule:nonzero;stroke:none"
           d="m 16300,1554.12 -19.8,3.15 c -77.9,1007.31 -385.4,1730.24 -389.8,1740.05 l 18,7.77 c 4.4,-9.98 314.2,-737.61 391.6,-1750.97" /></g><g
         transform="scale(1.14523)"
         id="g228"><path
           id="path230"
           style="fill:#8c9df4;fill-opacity:1;fill-rule:nonzero;stroke:none"
           d="m 16054.2,3479.38 c 38.9,-44.01 220.7,-114.74 233.3,-103.65 12.5,11.09 -35.1,200.31 -73.9,244.32 -38.9,44.01 -106.1,48.2 -150,9.34 -44,-38.85 -48.2,-106 -9.4,-150.01" /></g><g
         transform="scale(1.16198)"
         id="g232"><path
           id="path234"
           style="fill:#8c9df4;fill-opacity:1;fill-rule:nonzero;stroke:none"
           d="m 16097.5,3580.44 c -34.6,-46.39 -65.9,-236.15 -52.8,-246.05 13.3,-9.81 186.2,74.53 220.7,120.83 34.6,46.38 25,112.05 -21.3,146.56 -46.4,34.6 -112,25.04 -146.6,-21.34" /></g><g
         transform="scale(1.16856)"
         id="g236"><path
           id="path238"
           style="fill:#8c9df4;fill-opacity:1;fill-rule:nonzero;stroke:none"
           d="m 16211.9,3359.59 c -55.6,15.15 -242.6,-24.82 -246.9,-40.65 -4.3,-15.83 136.5,-145.13 192.1,-160.28 55.4,-15.06 112.7,17.63 127.8,73.08 15.1,55.54 -17.6,112.79 -73,127.85" /></g><g
         transform="scale(1.15358)"
         id="g240"><path
           id="path242"
           style="fill:#8c9df4;fill-opacity:1;fill-rule:nonzero;stroke:none"
           d="m 16294.4,3149.92 c -5.7,57.91 -110.6,220.71 -127.2,219.15 -16.6,-1.65 -88.4,-181.52 -82.8,-239.52 5.6,-57.99 57.1,-100.38 115.1,-94.83 58,5.63 100.5,57.21 94.9,115.2" /></g><g
         transform="scale(1.14436)"
         id="g244"><path
           id="path246"
           style="fill:#8c9df4;fill-opacity:1;fill-rule:nonzero;stroke:none"
           d="m 16136,3187.8 c 52,27.35 164,187.27 156.2,202.12 -7.8,14.86 -203.1,13.46 -255.1,-13.8 -51.9,-27.27 -72,-91.58 -44.7,-143.58 27.4,-51.99 91.6,-72 143.6,-44.74" /></g><g
         transform="scale(1.14645)"
         id="g248"><path
           id="path250"
           style="fill:#233862;fill-opacity:1;fill-rule:nonzero;stroke:none"
           d="m 16228,3389.23 c 3,19.11 20.9,32.1 40,29.05 19,-3.05 32,-20.93 29,-40.04 -3,-19.01 -21,-32.01 -40,-29.04 -19.1,3.05 -32.1,21.02 -29,40.03" /></g><g
         transform="scale(1.18787)"
         id="g252"><path
           id="path254"
           style="fill:#a8d29f;fill-opacity:1;fill-rule:nonzero;stroke:none"
           d="m 15996.4,2978.71 c -55.7,-68.45 -115.7,-355.6 -96.2,-371.51 19.5,-15.91 288.4,101.44 344.1,169.97 55.7,68.44 45.3,169.04 -23.2,224.69 -68.4,55.73 -169,45.29 -224.7,-23.15" /></g><g
         transform="scale(1.16929)"
         id="g256"><path
           id="path258"
           style="fill:#a8d29f;fill-opacity:1;fill-rule:nonzero;stroke:none"
           d="m 16111.4,2188.08 c 58.8,-28.56 188.6,-202.77 180.5,-219.53 -8.2,-16.77 -225.4,-21.72 -284.1,6.93 -58.8,28.65 -83.2,99.46 -54.5,158.13 28.6,58.75 99.5,83.12 158.1,54.47" /></g><g
         transform="scale(1.24686)"
         id="g260"><path
           id="path262"
           style="fill:#a8d29f;fill-opacity:1;fill-rule:nonzero;stroke:none"
           d="m 15857.8,1461.35 21.4,3.37 c 84,1087.53 416.1,1867.98 420.8,1878.56 l -19.4,8.34 c -4.7,-10.67 -339.2,-796.24 -422.8,-1890.27" /></g><g
         transform="scale(1.26723)"
         id="g264"><path
           id="path266"
           style="fill:#8c9df4;fill-opacity:1;fill-rule:nonzero;stroke:none"
           d="m 16259.7,3397.26 c -40.3,-45.69 -229,-119.08 -242,-107.64 -13.1,11.53 36.4,207.86 76.7,253.55 40.3,45.61 110,49.95 155.6,9.63 45.7,-40.25 50,-109.93 9.7,-155.54" /></g><g
         transform="scale(1.24701)"
         id="g268"><path
           id="path270"
           style="fill:#8c9df4;fill-opacity:1;fill-rule:nonzero;stroke:none"
           d="m 16229.4,3614 c 37,-49.64 70.6,-252.61 56.4,-263.19 -14.1,-10.5 -199,79.71 -236.1,129.27 -36.9,49.64 -26.7,119.81 23,156.85 49.5,36.97 119.8,26.71 156.7,-22.93" /></g><g
         transform="scale(1.24541)"
         id="g272"><path
           id="path274"
           style="fill:#8c9df4;fill-opacity:1;fill-rule:nonzero;stroke:none"
           d="m 16029.4,3402.57 c 59.8,16.3 261.3,-26.74 265.9,-43.84 4.7,-17.02 -147.1,-156.33 -206.9,-172.63 -59.7,-16.3 -121.4,18.95 -137.7,78.69 -16.3,59.82 19,121.48 78.7,137.78" /></g><g
         transform="scale(1.25266)"
         id="g276"><path
           id="path278"
           style="fill:#8c9df4;fill-opacity:1;fill-rule:nonzero;stroke:none"
           d="m 16072.1,3114.98 c 5.9,61.31 116.9,233.42 134.4,231.75 17.5,-1.68 93.5,-191.92 87.6,-253.22 -5.9,-61.31 -60.4,-106.18 -121.7,-100.27 -61.4,5.91 -106.3,60.43 -100.3,121.74" /></g><g
         transform="scale(1.27226)"
         id="g280"><path
           id="path282"
           style="fill:#8c9df4;fill-opacity:1;fill-rule:nonzero;stroke:none"
           d="m 16123.5,3079.94 c -53.7,28.22 -169.3,193.36 -161.3,208.69 8.1,15.32 209.7,13.91 263.4,-14.23 53.7,-28.22 74.4,-94.56 46.2,-148.32 -28.2,-53.68 -94.6,-74.35 -148.3,-46.14" /></g><g
         transform="scale(1.24893)"
         id="g284"><path
           id="path286"
           style="fill:#2a4a7c;fill-opacity:1;fill-rule:nonzero;stroke:none"
           d="m 16296.9,3355.92 c -3.2,20.1 -22.1,33.79 -42.2,30.59 -20.1,-3.2 -33.8,-22.1 -30.6,-42.2 3.2,-20.1 22.1,-33.79 42.2,-30.58 20,3.2 33.7,22.09 30.6,42.19" /></g><g
         transform="scale(1.22319)"
         id="g288"><path
           id="path290"
           style="fill:#a8d29f;fill-opacity:1;fill-rule:nonzero;stroke:none"
           d="m 16170.9,2623.06 c 62.1,-76.36 129.1,-396.59 107.3,-414.25 -21.8,-17.73 -321.6,113.15 -383.7,189.43 -62,76.35 -50.5,188.52 25.8,250.57 76.4,62.13 188.6,50.53 250.6,-25.75" /></g><g
         transform="scale(1.24756)"
         id="g292"><path
           id="path294"
           style="fill:#a8d29f;fill-opacity:1;fill-rule:nonzero;stroke:none"
           d="m 16099,2138.25 c -63.2,-30.78 -203,-218.19 -194.2,-236.22 8.8,-18.04 242.6,-23.41 305.7,7.37 63.2,30.86 89.5,107.01 58.6,170.25 -30.7,63.17 -107,89.46 -170.1,58.6" /></g><g
         transform="scale(1.25233)"
         id="g296"><path
           id="path298"
           style="fill:#a8d29f;fill-opacity:1;fill-rule:nonzero;stroke:none"
           d="m 14815.9,1366.66 c 0,0 258.5,341.6 626.3,216.64 367.7,-124.97 857.8,-11.26 856.5,-182.54 l -1482.8,-34.1" /></g><g
         transform="scale(1.40414)"
         id="g300"><path
           id="path302"
           style="fill:#ffb27d;fill-opacity:1;fill-rule:nonzero;stroke:none"
           d="m 16145.3,4294.67 c 0,0 23.9,-42.09 8.4,-87.45 -38.7,-113.03 -37.7,-156.68 29.7,-207.11 0,0 93.2,-46.36 81,5.7 -5.4,22.79 -4.7,62.53 6.1,93.58 28.6,82.12 29.5,122.21 -13.9,180.19 l -18.8,29.26 -92.5,-14.17" /></g><g
         transform="scale(1.39345)"
         id="g304"><path
           id="path306"
           style="fill:#ffb27d;fill-opacity:1;fill-rule:nonzero;stroke:none"
           d="m 16300,4244.49 c 0,0 -20.7,-3.59 -26.9,-18.37 -20.2,-47.51 -66.8,-88.63 -59.9,-96.17 14.2,-15.64 46.6,14.93 66.1,44.93 19.4,29.92 20.7,69.61 20.7,69.61" /></g><g
         transform="scale(1.40452)"
         id="g308"><path
           id="path310"
           style="fill:#ef7e29;fill-opacity:1;fill-rule:nonzero;stroke:none"
           d="m 15114,5523.59 c -13.5,171.45 172.8,289 319.9,199.85 3,-1.85 5.9,-3.7 8.9,-5.62 220.3,-141.76 695.4,-803.05 728,-869.34 32.7,-66.21 129.2,-593.29 129.2,-593.29 0,0 -119.3,-43.58 -175,1.63 0,0 -193.5,499.89 -222,524.88 -28.6,24.99 -773.7,443 -780,599.71 -1.7,41.5 -5,91.27 -9,142.18" /></g><g
         transform="scale(1.42454)"
         id="g312"><path
           id="path314"
           style="fill:#2a4a7c;fill-opacity:1;fill-rule:nonzero;stroke:none"
           d="m 16212.5,1629.44 c 0,0 87.5,-79.82 70.4,-136.61 -17.1,-56.72 -96.1,-94.62 -106.7,-163.98 -10.7,-69.35 -53.5,-107.19 -91.8,-107.19 -38.5,0 -183.3,0 -183.3,0 0,0 -28.3,48.79 40,63.53 68.4,14.74 94.1,96.24 89.9,171.91 -4.3,75.68 6.4,176.55 6.4,176.55 l 145.2,33.69 29.9,-37.9" /></g><g
         transform="scale(1.32441)"
         id="g316"><path
           id="path318"
           style="fill:#2a4a7c;fill-opacity:1;fill-rule:nonzero;stroke:none"
           d="m 16283.1,1530.41 c 0,0 16.9,-195.48 -24.4,-215.86 l -529,1.13 c 0,0 0,61.01 85,74.6 84.9,13.52 234.2,63.27 259.5,174.11 25.2,110.77 208.9,-33.98 208.9,-33.98" /></g><g
         transform="scale(1.35009)"
         id="g320"><path
           id="path322"
           style="fill:#8c9df4;fill-opacity:1;fill-rule:nonzero;stroke:none"
           d="m 15535.2,4210.9 c 0,0 27.4,-336.2 59.6,-740.4 43.8,-548.99 96.3,-1223.39 101.5,-1351.16 9,-221.84 45.1,-576.71 45.1,-576.71 0,0 85.5,-84.36 256.8,-48.81 0,0 152.6,506.56 196.2,1042.6 0.6,8.74 1.3,17.63 2,26.44 40.6,545.67 103.6,1694.63 103.6,1694.63 l -764.8,-46.59" /></g><g
         transform="scale(1.35009)"
         id="g324"><path
           id="path326"
           style="fill:#707fe5;fill-opacity:1;fill-rule:nonzero;stroke:none"
           d="m 15535.2,4210.9 c 0,0 27.4,-336.2 59.6,-740.4 l 599.6,-934.08 c 0.6,8.74 1.3,17.63 2,26.44 40.6,545.67 103.6,1694.63 103.6,1694.63 l -764.8,-46.59" /></g><g
         transform="scale(1.41689)"
         id="g328"><path
           id="path330"
           style="fill:#8c9df4;fill-opacity:1;fill-rule:nonzero;stroke:none"
           d="m 14922,3974.34 c 0,0 470,-1160.29 779.2,-1705.57 309,-545.28 405.6,-697.44 405.6,-697.44 0,0 177.1,69.73 193.2,117.3 0,0 -118.2,1052.66 -325.2,1309.27 -117,145.04 -216.2,560.39 -232.5,711.77 -19,176.38 -70.2,473.93 -70.2,473.93 L 14922,3974.34" /></g><g
         transform="scale(1.33234)"
         id="g332"><path
           id="path334"
           style="fill:#ffb27d;fill-opacity:1;fill-rule:nonzero;stroke:none"
           d="m 16300,6077.59 c 0,0 -335,-169.93 -531.1,-113.26 0,0 29.8,39.25 84.1,78.81 27.5,20.04 40.7,54.26 35.2,87.81 -2.7,15.47 -4.8,29.88 -6.4,43.16 -9.6,66.35 -10.4,103.95 -10.4,103.95 l 128.4,105.23 121.9,100.65 c -4.3,-276.28 178.3,-406.35 178.3,-406.35" /></g><g
         transform="scale(1.36436)"
         id="g336"><path
           id="path338"
           style="fill:#aec3ff;fill-opacity:1;fill-rule:nonzero;stroke:none"
           d="m 16242.3,4249.33 c -132,-79.89 -257,-139.99 -403.3,-173.78 -172.6,-40.9 -384.7,-28.81 -455.7,-39.65 -7.3,-1.03 -14.2,0.95 -20.7,5.2 -5.5,2.86 -36.8,213.36 -68.2,479.06 -1.4,10.7 -2.9,21.54 -3.4,32.32 l -0.6,3.59 c -12.1,103.86 -22.8,212.99 -32.1,322.35 -7.6,85.09 -13.8,169.24 -18.1,248.32 -5.5,98.88 -7.7,189.76 -5.5,264.45 1.1,34.16 3,64.86 6,91.55 18.8,155.23 92.8,266.13 162.5,348.66 l 68.6,65.3 c 67.1,-4.25 124.7,8.95 189.4,51.6 70.5,46.47 146.8,96.46 161.1,88.1 108.3,-59.22 196.5,-212.7 259.4,-415.36 36.1,-116.68 63.8,-249.05 81.5,-389.27 5.7,-43.46 10.6,-88.1 14.3,-132.59 0.7,-8.21 1.3,-16.42 1.9,-24.55 8.5,-121.45 22.4,-235.35 37.8,-337.01 20.7,-137.21 44.2,-252.06 60.9,-332.98 8.3,-41.19 14.7,-73 18.5,-95.79 3.4,-19.94 -36.5,-48.45 -54.3,-59.52" /></g><g
         transform="scale(1.36445)"
         id="g340"><path
           id="path342"
           style="fill:#f99746;fill-opacity:1;fill-rule:nonzero;stroke:none"
           d="m 16242.4,4248.68 c -132.1,-79.96 -257,-140.06 -403.3,-173.77 -172.6,-40.9 -384.7,-28.88 -455.7,-39.65 -7.3,-1.03 -14.2,0.88 -20.6,5.2 -5.6,2.86 -37,213.35 -68.3,479.03 -1.4,10.69 -2.8,21.47 -3.5,32.31 l -0.4,3.6 c -12.2,103.85 -22.9,212.9 -32.2,322.33 -7.5,85.08 -13.8,169.22 -18.1,248.3 -5.4,98.87 -7.7,189.67 -5.4,264.43 1,34.15 3,64.86 6,91.54 18.8,155.15 86.6,275.57 160.8,354.13 16.2,17.23 70.3,59.74 70.3,59.74 67,-4.26 124.6,9.01 189.3,51.59 70.6,46.54 146.8,96.52 161.1,88.17 108.3,-59.22 196.5,-212.69 259.4,-415.33 36.1,-116.68 63.8,-249.04 81.5,-389.25 5.7,-43.53 10.5,-88.16 14.2,-132.58 0.8,-8.2 1.4,-16.41 2,-24.55 8.5,-121.51 22.4,-235.33 37.8,-336.98 20.7,-137.2 44.2,-252.05 60.9,-332.96 8.3,-41.19 14.7,-73 18.4,-95.86 3.4,-19.86 -36.4,-48.38 -54.2,-59.44" /></g><g
         transform="scale(1.31812)"
         id="g344"><path
           id="path346"
           style="fill:#ed985f;fill-opacity:1;fill-rule:nonzero;stroke:none"
           d="m 16300,6447.23 c 0,0 -83.3,-159.17 -246.9,-206.51 -9.7,67.07 -10.4,105.08 -10.4,105.08 l 129.8,106.36 127.5,-4.93" /></g><g
         transform="scale(1.32807)"
         id="g348"><path
           id="path350"
           style="fill:#ffb27d;fill-opacity:1;fill-rule:nonzero;stroke:none"
           d="m 15862.7,6301.56 c 0,0 324.7,-46.46 351.1,153.08 26.5,199.54 86.2,328 -120,366.1 -206.2,38.17 -256.7,-32.83 -282,-97.36 -25.2,-64.53 -32.9,-404.57 50.9,-421.82" /></g><g
         transform="scale(1.33245)"
         id="g352"><path
           id="path354"
           style="fill:#233862;fill-opacity:1;fill-rule:nonzero;stroke:none"
           d="m 16269.9,6826.58 c 2.9,3.45 9.6,6.3 24.6,7.35 0,0 -12.1,7.28 -28.2,7.36 -3.6,20.86 -15.5,57.64 -51.6,65.89 0,0 19.6,-9.91 22.5,-32.05 -42.5,41.96 -132.4,71.3 -379.2,46.91 -325.3,-32.19 -213.8,-238.66 -171.2,-262.67 42.7,-24.02 147.6,46.23 226.2,41.57 78.8,-4.72 96,-117.97 123,-132.98 26.9,-15.09 15.9,12.31 51.6,29.27 35.8,17.03 40.4,-42.63 30.8,-81.73 -9.7,-39.1 40.9,-89.39 40.9,-89.39 0,0 0,0 49,54.94 49,54.94 91.7,284.36 67.9,332.62 -2,4.28 -4.1,8.56 -6.3,12.91" /></g><g
         transform="scale(1.3216)"
         id="g356"><path
           id="path358"
           style="fill:#ef7e29;fill-opacity:1;fill-rule:nonzero;stroke:none"
           d="m 16300,5547.76 c 0,0 -275.1,-209.29 -566.7,-255.14 -5.6,102.07 -8,195.9 -5.6,273 l 572.3,-17.86" /></g><g
         transform="scale(1.18461)"
         id="g360"><path
           id="path362"
           style="fill:#ffb27d;fill-opacity:1;fill-rule:nonzero;stroke:none"
           d="m 16300,6490.64 c -4.8,5.23 -59.7,177.02 -168.5,187.06 -87.1,8.02 -279.7,-33.43 -223,-64.41 18.9,-10.29 124.4,-75.21 178.6,-169.08 26.8,-46.51 109.2,-60.86 109.2,-60.86 l 103.7,107.29" /></g><g
         transform="scale(1.33712)"
         id="g364"><path
           id="path366"
           style="fill:#f99746;fill-opacity:1;fill-rule:nonzero;stroke:none"
           d="m 16144.9,5882.96 c 155.1,-92.74 142.5,-323.83 -23.4,-395.63 -3.4,-1.42 -6.8,-2.84 -10.2,-4.26 -255.4,-102.39 -994.4,-143.67 -1187.6,-94.91 -75.3,19 -587,250.24 -587,250.24 0,0 35.3,128.71 108,148.9 0,0 465.7,-63.19 556.5,-75.01 468.7,-60.8 878.3,339.31 1016.5,249.42 36.5,-23.78 81.2,-51.23 127.2,-78.75" /></g><path
         id="path368"
         style="fill:#dde7fe;fill-opacity:1;fill-rule:nonzero;stroke:none"
         d="m 9252.96,14021.4 c 15.22,-23.7 8.4,-55.2 -15.24,-70.4 -23.63,-15.2 -55.12,-8.4 -70.34,15.2 -15.22,23.7 -8.4,55.2 15.24,70.4 23.63,15.2 55.12,8.4 70.34,-15.2" /><path
         id="path370"
         style="fill:#dde7fe;fill-opacity:1;fill-rule:nonzero;stroke:none"
         d="m 9198.29,11467.3 c 22.3,-34.7 12.3,-80.8 -22.34,-103.1 -34.64,-22.3 -80.8,-12.3 -103.1,22.3 -22.3,34.7 -12.3,80.8 22.34,103.1 34.63,22.3 80.8,12.3 103.1,-22.3" /><path
         id="path372"
         style="fill:#ffffff;fill-opacity:1;fill-rule:nonzero;stroke:none"
         d="m 7311.94,11158 c 31.02,-48.2 17.11,-112.3 -31.07,-143.4 -48.17,-31 -112.37,-17.1 -143.39,31.1 -31.02,48.2 -17.11,112.4 31.07,143.4 48.17,31 112.37,17.1 143.39,-31.1" /><path
         id="path374"
         style="fill:#dde7fe;fill-opacity:1;fill-rule:nonzero;stroke:none"
         d="m 8160.68,12864.4 c 22.66,-35.1 12.5,-82.1 -22.7,-104.7 -35.2,-22.7 -82.12,-12.5 -104.78,22.7 -22.66,35.2 -12.5,82.1 22.7,104.8 35.2,22.6 82.11,12.5 104.78,-22.8" /><path
         id="path376"
         style="fill:#dde7fe;fill-opacity:1;fill-rule:nonzero;stroke:none"
         d="m 5882.85,10881.6 c 10.52,-16.3 5.8,-38.1 -10.55,-48.7 -16.35,-10.5 -38.14,-5.8 -48.67,10.6 -10.53,16.3 -5.81,38.1 10.54,48.7 16.36,10.5 38.14,5.8 48.68,-10.6" /><path
         id="path378"
         style="fill:#dde7fe;fill-opacity:1;fill-rule:nonzero;stroke:none"
         d="m 4259.98,6187.2 c -13.73,-37.2 -55.02,-56.2 -92.21,-42.5 -37.19,13.8 -56.2,55 -42.47,92.2 13.74,37.2 55.03,56.2 92.21,42.5 37.2,-13.7 56.21,-55 42.47,-92.2" /><path
         id="path380"
         style="fill:#dde7fe;fill-opacity:1;fill-rule:nonzero;stroke:none"
         d="m 4616.69,9140.1 c -11.46,-22.9 -39.29,-32.1 -62.16,-20.7 -22.87,11.5 -32.11,39.3 -20.65,62.2 11.46,22.9 39.29,32.1 62.16,20.6 22.87,-11.4 32.11,-39.3 20.65,-62.1" /><path
         id="path382"
         style="fill:#ffffff;fill-opacity:1;fill-rule:nonzero;stroke:none"
         d="m 5226.23,7948.9 c -16.8,-33.5 -57.59,-47 -91.1,-30.2 -33.52,16.8 -47.07,57.6 -30.27,91.1 16.8,33.5 57.59,47.1 91.11,30.3 33.51,-16.8 47.06,-57.6 30.26,-91.2" /><path
         id="path384"
         style="fill:#dde7fe;fill-opacity:1;fill-rule:nonzero;stroke:none"
         d="m 5854.75,9905.3 c -17.08,-34.1 -58.53,-47.8 -92.6,-30.8 -34.06,17.1 -47.83,58.6 -30.75,92.6 17.07,34.1 58.52,47.9 92.58,30.8 34.07,-17.1 47.84,-58.5 30.77,-92.6" /><path
         id="path386"
         style="fill:#dde7fe;fill-opacity:1;fill-rule:nonzero;stroke:none"
         d="m 8728.62,6867.4 c -6.74,-18.3 -26.99,-27.6 -45.24,-20.9 -18.24,6.8 -27.56,27 -20.83,45.3 6.74,18.2 27,27.5 45.24,20.8 18.25,-6.8 27.57,-27 20.83,-45.2" /><path
         id="path388"
         style="fill:#2b478b;fill-opacity:1;fill-rule:nonzero;stroke:none"
         d="m 10437.4,1715.7 c -4033.23,4.8 -7206.66,13.3 -7211.49,28.4 l -2.16,5 c 0,0 -2.17,5 -2.17,7.4 -2.67,6.1 -325.7,535.9 -619.86,1380.3 586.16,102.6 2009.14,236.9 3476.12,-486.6 1896.45,-935.5 3491.62,508.9 4359.56,-934.5" /><path
         id="path390"
         style="fill:#2b478b;fill-opacity:1;fill-rule:nonzero;stroke:none"
         d="m 4044.53,2886 c 0,0 449.84,1687.8 1141.58,1762 691.75,74.3 -874.51,-1192.2 -1141.58,-1762" /><path
         id="path392"
         style="fill:#2b478b;fill-opacity:1;fill-rule:nonzero;stroke:none"
         d="m 4238.24,2923.2 c 0,0 708.85,1054.7 1174.28,944.5 465.43,-110.2 -860.53,-615.3 -1174.28,-944.5" /><path
         id="path394"
         style="fill:#2b478b;fill-opacity:1;fill-rule:nonzero;stroke:none"
         d="m 9542.03,2056 c 0,0 512.97,801.7 883.17,725.8 370.1,-75.9 -650.4,-474.2 -883.17,-725.8" /><path
         id="path396"
         style="fill:#2b478b;fill-opacity:1;fill-rule:nonzero;stroke:none"
         d="m 9671.21,2040.4 c 0,0 617.79,475.1 881.79,313.8 264.1,-161.3 -632.62,-184.6 -881.79,-313.8" /><path
         id="path398"
         style="fill:#2b478b;fill-opacity:1;fill-rule:nonzero;stroke:none"
         d="m 9375.36,2053.2 c 0,0 172.23,760.1 478.4,804.5 306.14,44.4 -369.07,-546 -478.4,-804.5" /><g
         transform="scale(1.3638)"
         id="g400"><path
           id="path402"
           style="fill:#ffffff;fill-opacity:1;fill-rule:nonzero;stroke:none"
           d="m 15508.2,10601.1 c 0,218.7 177.3,395.9 395.9,395.9 218.7,0 395.9,-177.2 395.9,-395.9 0,-218.7 -177.2,-395.9 -395.9,-395.9 -218.6,0 -395.9,177.2 -395.9,395.9" /></g><path
         id="path404"
         style="fill:#2b478b;fill-opacity:1;fill-rule:nonzero;stroke:none"
         d="m 14609.7,1729.4 h -704 c -37.7,32 26.1,104.6 92.8,109.5 29,2.2 65.6,-3.9 107.5,-12.7 9.6,128.7 65,707.1 273.5,683.8 234.4,-26 0,-254.7 -66.3,-390.1 -49.1,-100.3 -100.9,-244.1 -124.6,-312 19.1,-4.1 38.8,-8.1 58.9,-11.8 31.1,95.4 146.7,416.3 293.7,397.6 172.6,-21.9 103.2,-150.6 -19.1,-227 -89.8,-56.1 -200,-135.9 -252.4,-174.5 44.4,-7.2 90.7,-12.1 137.7,-11 120.6,2.8 179.4,-32.7 202.3,-51.8" /><g
         transform="scale(1.73701)"
         id="g406"><path
           id="path408"
           style="fill:#233862;fill-opacity:1;fill-rule:nonzero;stroke:none"
           d="M 16281.8,962.055 H 917.373 c -10.005,0 -18.191,8.175 -18.191,18.191 v 8.004 c 0,10.016 8.186,18.19 18.191,18.19 H 16281.8 c 10,0 18.2,-8.174 18.2,-18.19 v -8.004 c 0,-10.016 -8.2,-18.191 -18.2,-18.191" /></g><g
         transform="scale(1.2976)"
         id="g410"><path
           id="path412"
           style="fill:#739af0;fill-opacity:1;fill-rule:nonzero;stroke:none"
           d="m 15802.5,11890.7 c 0,0 -294.7,141.6 -675.5,63.9 0,0 435.6,29.7 693.8,-246.7 0,0 180.6,277 479.2,340.5 0,0 -222.5,26.5 -497.5,-157.7" /></g><g
         transform="scale(1.22256)"
         id="g414"><path
           id="path416"
           style="fill:#739af0;fill-opacity:1;fill-rule:nonzero;stroke:none"
           d="m 15890.9,12762.2 c 0,0 -241.3,117.6 -554.2,55.6 0,0 357.6,22.3 568.3,-205.8 0,0 149.6,226.4 395,277.1 0,0 -182.5,22.9 -409.1,-126.9" /></g><g
         transform="scale(1.16106)"
         id="g418"><path
           id="path420"
           style="fill:#739af0;fill-opacity:1;fill-rule:nonzero;stroke:none"
           d="m 15913.3,13551.2 c 0,0 -235.8,102.9 -533.1,30.8 0,0 341.7,35.9 552.7,-174.1 0,0 134.1,223 367.1,281.5 0,0 -175.7,14.5 -386.7,-138.2" /></g><g
         transform="scale(1.11874)"
         id="g422"><path
           id="path424"
           style="fill:#739af0;fill-opacity:1;fill-rule:nonzero;stroke:none"
           d="m 16038.5,14309.7 c 0,0 -171.8,56.5 -375.1,-13.4 0,0 236.8,47.5 398.2,-85.6 0,0 79.2,164.8 238.4,221 0,0 -123.9,-1.4 -261.5,-122" /></g><g
         transform="scale(1.23629)"
         id="g426"><path
           id="path428"
           style="fill:#739af0;fill-opacity:1;fill-rule:nonzero;stroke:none"
           d="m 16057.8,13496.3 c 0,0 -152.5,59.3 -339.5,5.7 0,0 216.2,31.7 355.8,-96.2 0,0 79.3,145.2 225.9,188.5 0,0 -112.1,4.6 -242.2,-98" /></g><g
         transform="scale(1.30264)"
         id="g430"><path
           id="path432"
           style="fill:#739af0;fill-opacity:1;fill-rule:nonzero;stroke:none"
           d="m 15953.7,12308.7 c 0,0 -202,101.8 -466.6,53.1 0,0 301.8,14.8 476.8,-179.9 0,0 128.7,189.2 336.1,229.2 0,0 -153.6,21.3 -346.3,-102.4" /></g><g
         transform="scale(1.27774)"
         id="g434"><path
           id="path436"
           style="fill:#739af0;fill-opacity:1;fill-rule:nonzero;stroke:none"
           d="m 15977.5,12870.9 c 0,0 -194,88.7 -441.4,33.4 0,0 283.7,24.7 455.5,-152.5 0,0 114.5,182.8 308.4,227.9 0,0 -145.4,14.6 -322.5,-108.8" /></g><g
         transform="scale(1.17058)"
         id="g438"><path
           id="path440"
           style="fill:#2b478b;fill-opacity:1;fill-rule:nonzero;stroke:none"
           d="m 16245.6,9638.14 c -12.2,1.91 -23.5,9.17 -30.1,20.78 -195.4,344.28 -565.5,810.38 -1218.6,1075.68 -21.5,8.7 -31.8,33.2 -23.1,54.7 8.7,21.5 33.3,31.8 54.7,23.1 675.4,-274.3 1058,-756.1 1260.1,-1112.01 11.4,-20.18 4.4,-45.81 -15.8,-57.27 -8.6,-4.87 -18.2,-6.39 -27.2,-4.98" /></g><g
         transform="scale(1.17763)"
         id="g442"><path
           id="path444"
           style="fill:#2b478b;fill-opacity:1;fill-rule:nonzero;stroke:none"
           d="m 16300,9312.09 -31.6,519.61 -127.8,-188.44 -227,17.65 386.4,-348.82" /></g><path
         id="path446"
         style="fill:#8c9df4;fill-opacity:1;fill-rule:nonzero;stroke:none"
         d="m 12315.7,7119 c 14.3,-2.2 27.5,-10.7 35.3,-24.3 228.8,-403 662,-948.7 1426.4,-1259.2 25.2,-10.2 37.3,-38.9 27.1,-64 -10.2,-25.2 -38.9,-37.3 -64.1,-27.1 -790.6,321.2 -1238.5,885.2 -1475,1301.8 -13.4,23.6 -5.1,53.6 18.5,67 10.1,5.7 21.3,7.5 31.8,5.8" /><path
         id="path448"
         style="fill:#8c9df4;fill-opacity:1;fill-rule:nonzero;stroke:none"
         d="m 12137.2,7435.1 37.2,-611.9 150.5,221.9 267.3,-20.8 -455,410.8" /></g></g></svg>